# Auto-generated from Half-Life SMD
mtllib v_rpg_blowpipe.mtl
o v_rpg_blowpipe
v -7.147600 -20.917000 60.067200
v -8.617600 -21.857000 60.757200
v -7.147600 -21.857000 61.157200
v -7.147600 -20.917000 60.067200
v -7.147600 -21.857000 61.157200
v -6.217600 -20.917000 59.817200
v -6.217600 -20.917000 59.817200
v -7.147600 -21.857000 61.157200
v -5.677600 -21.857000 60.757200
v -6.217600 -20.917000 59.817200
v -5.677600 -21.857000 60.757200
v -5.527600 -20.917000 59.127200
v -5.527600 -20.917000 59.127200
v -5.677600 -21.857000 60.757200
v -4.597600 -21.857000 59.677200
v -5.527600 -20.917000 59.127200
v -4.597600 -21.857000 59.677200
v -5.277600 -20.917000 58.197200
v -5.277600 -20.917000 58.197200
v -4.597600 -21.857000 59.677200
v -4.207600 -21.857000 58.217200
v -5.277600 -20.917000 58.197200
v -4.207600 -21.857000 58.217200
v -5.527600 -20.917000 57.267200
v -5.527600 -20.917000 57.267200
v -4.207600 -21.857000 58.217200
v -4.597600 -21.857000 56.747200
v -5.527600 -20.917000 57.267200
v -4.597600 -21.857000 56.747200
v -6.217600 -20.917000 56.577200
v -6.217600 -20.917000 56.577200
v -4.597600 -21.857000 56.747200
v -5.677600 -21.857000 55.667200
v -6.217600 -20.917000 56.577200
v -5.677600 -21.857000 55.667200
v -7.147600 -20.927000 56.597200
v -7.147600 -20.927000 56.597200
v -5.677600 -21.857000 55.667200
v -7.147600 -21.857000 55.277200
v -9.687600 -21.857000 59.677200
v -8.767600 -20.917000 59.127200
v -10.087600 -21.857000 58.217200
v -9.687600 -21.857000 59.677200
v -8.477600 -20.917000 59.517200
v -8.767600 -20.917000 59.127200
v -9.687600 -21.857000 59.677200
v -8.077600 -20.917000 59.817200
v -8.477600 -20.917000 59.517200
v -9.687600 -21.857000 59.677200
v -8.617600 -21.857000 60.757200
v -8.077600 -20.917000 59.817200
v -8.767600 -20.917000 59.127200
v -9.017600 -20.917000 58.197200
v -10.087600 -21.857000 58.217200
v -8.077600 -20.917000 59.817200
v -8.617600 -21.857000 60.757200
v -7.147600 -20.917000 60.067200
v -5.567600 -18.107000 55.867200
v -5.807600 -11.467000 56.097200
v -5.947600 -10.577000 56.817200
v -5.567600 -18.107000 55.867200
v -5.947600 -10.577000 56.817200
v -5.707600 -17.607000 56.717200
v -5.707600 -17.607000 56.717200
v -5.947600 -10.577000 56.817200
v -6.067600 -7.977000 57.497200
v -5.707600 -17.607000 56.717200
v -6.067600 -7.977000 57.497200
v -5.777600 -16.847000 57.527200
v -5.807600 -11.467000 56.097200
v -5.567600 -18.107000 55.867200
v -5.537600 -17.527000 53.637200
v -5.807600 -11.467000 56.097200
v -5.537600 -17.527000 53.637200
v -5.767600 -11.477000 54.177200
v -5.537600 -17.527000 53.637200
v -5.977600 -16.667000 53.257200
v -5.767600 -11.477000 54.177200
v -6.047600 -14.327000 53.127200
v -5.767600 -11.477000 54.177200
v -5.977600 -16.667000 53.257200
v -6.937600 -11.467000 56.097200
v -6.837600 -10.577000 56.817200
v -5.947600 -10.577000 56.817200
v -6.937600 -11.467000 56.097200
v -5.947600 -10.577000 56.817200
v -5.807600 -11.467000 56.097200
v -5.947600 -10.577000 56.817200
v -6.837600 -10.577000 56.817200
v -6.827600 -7.977000 57.497200
v -5.947600 -10.577000 56.817200
v -6.827600 -7.977000 57.497200
v -6.067600 -7.977000 57.497200
v -6.937600 -11.467000 56.097200
v -5.807600 -11.467000 56.097200
v -5.767600 -11.477000 54.177200
v -6.937600 -11.467000 56.097200
v -5.767600 -11.477000 54.177200
v -6.987600 -11.477000 54.177200
v -6.987600 -11.477000 54.177200
v -5.767600 -11.477000 54.177200
v -6.047600 -14.327000 53.127200
v -6.987600 -11.477000 54.177200
v -6.047600 -14.327000 53.127200
v -6.587600 -14.327000 53.127200
v -1.967600 -14.597000 54.227200
v -2.087600 -13.687000 54.597200
v -1.927600 -14.907000 56.517200
v -1.967600 -14.597000 54.227200
v -1.927600 -14.907000 56.517200
v -1.807600 -15.817000 56.197200
v -4.867600 -14.907000 56.517200
v -4.817600 -15.817000 56.197200
v -1.807600 -15.817000 56.197200
v -4.867600 -14.907000 56.517200
v -1.807600 -15.817000 56.197200
v -1.927600 -14.907000 56.517200
v -4.757600 -8.917000 59.647200
v -4.467600 -9.207000 59.927200
v -4.357600 -9.187000 59.657200
v -4.757600 -8.917000 59.647200
v -4.727600 -9.207000 60.037200
v -4.467600 -9.207000 59.927200
v -4.757600 -8.917000 59.647200
v -4.987600 -9.207000 59.927200
v -4.727600 -9.207000 60.037200
v -4.757600 -8.917000 59.647200
v -5.097600 -9.187000 59.657200
v -4.987600 -9.207000 59.927200
v -4.757600 -8.917000 59.647200
v -4.987600 -9.177000 59.397200
v -5.097600 -9.187000 59.657200
v -4.757600 -8.917000 59.647200
v -4.727600 -9.167000 59.287200
v -4.987600 -9.177000 59.397200
v -4.757600 -8.917000 59.647200
v -4.467600 -9.177000 59.397200
v -4.727600 -9.167000 59.287200
v -4.757600 -8.917000 59.647200
v -4.357600 -9.187000 59.657200
v -4.467600 -9.177000 59.397200
v -4.937600 -13.687000 54.597200
v -4.867600 -14.907000 56.517200
v -1.927600 -14.907000 56.517200
v -4.937600 -13.687000 54.597200
v -1.927600 -14.907000 56.517200
v -2.087600 -13.687000 54.597200
v -4.497600 -14.897000 54.747200
v -4.567600 -13.897000 54.817200
v -4.567600 -13.897000 55.367200
v -4.497600 -14.897000 54.747200
v -4.567600 -13.897000 55.367200
v -4.497600 -14.897000 55.317200
v -5.737600 -14.877000 54.637200
v -5.787600 -13.497000 54.737200
v -4.567600 -13.897000 54.817200
v -5.737600 -14.877000 54.637200
v -4.567600 -13.897000 54.817200
v -4.497600 -14.897000 54.747200
v -5.787600 -13.497000 54.737200
v -5.787600 -13.497000 55.497200
v -4.567600 -13.897000 55.367200
v -5.787600 -13.497000 54.737200
v -4.567600 -13.897000 55.367200
v -4.567600 -13.897000 54.817200
v -5.787600 -13.497000 55.497200
v -5.737600 -14.877000 55.427200
v -4.497600 -14.897000 55.317200
v -5.787600 -13.497000 55.497200
v -4.497600 -14.897000 55.317200
v -4.567600 -13.897000 55.367200
v -5.307600 -13.567000 56.197200
v -5.377600 -12.077000 56.247200
v -5.377600 -12.077000 57.017200
v -5.307600 -13.567000 56.197200
v -5.377600 -12.077000 57.017200
v -5.307600 -13.567000 57.007200
v -6.087600 -13.747000 56.097200
v -6.137600 -11.907000 56.157200
v -5.377600 -12.077000 56.247200
v -6.087600 -13.747000 56.097200
v -5.377600 -12.077000 56.247200
v -5.307600 -13.567000 56.197200
v -6.137600 -11.907000 56.157200
v -6.137600 -11.907000 57.117200
v -5.377600 -12.077000 57.017200
v -6.137600 -11.907000 56.157200
v -5.377600 -12.077000 57.017200
v -5.377600 -12.077000 56.247200
v -6.137600 -11.907000 57.117200
v -6.087600 -13.747000 57.107200
v -5.307600 -13.567000 57.007200
v -6.137600 -11.907000 57.117200
v -5.307600 -13.567000 57.007200
v -5.377600 -12.077000 57.017200
v -6.897600 -19.307000 54.977200
v -6.987600 -6.297000 55.977200
v -6.987600 -6.307000 57.137200
v -6.897600 -19.307000 54.977200
v -6.987600 -6.307000 57.137200
v -6.887600 -21.097000 56.617200
v -4.097600 -10.797000 59.267200
v -4.257600 -9.417000 59.247200
v -4.257600 -9.467000 60.007200
v -4.097600 -10.797000 59.267200
v -4.257600 -9.467000 60.007200
v -4.097600 -10.837000 60.067200
v -5.077600 -10.797000 59.267200
v -5.177600 -9.417000 59.247200
v -4.257600 -9.417000 59.247200
v -5.077600 -10.797000 59.267200
v -4.257600 -9.417000 59.247200
v -4.097600 -10.797000 59.267200
v -4.997600 -9.737000 60.587200
v -4.917600 -10.627000 60.647200
v -4.297600 -10.627000 60.647200
v -4.997600 -9.737000 60.587200
v -4.297600 -10.627000 60.647200
v -4.387600 -9.737000 60.587200
v -4.097600 -10.837000 60.067200
v -4.257600 -9.467000 60.007200
v -4.387600 -9.737000 60.587200
v -4.097600 -10.837000 60.067200
v -4.387600 -9.737000 60.587200
v -4.297600 -10.627000 60.647200
v -4.207600 -9.987000 59.277200
v -4.207600 -9.997000 59.447200
v -4.237600 -9.717000 59.447200
v -4.207600 -9.987000 59.277200
v -4.237600 -9.717000 59.447200
v -4.237600 -9.707000 59.277200
v -4.117600 -9.987000 59.277200
v -4.157600 -9.707000 59.277200
v -4.157600 -9.717000 59.447200
v -4.117600 -9.987000 59.277200
v -4.157600 -9.717000 59.447200
v -4.117600 -9.997000 59.447200
v -4.237600 -9.707000 59.277200
v -4.237600 -9.717000 59.447200
v -4.157600 -9.717000 59.447200
v -4.237600 -9.707000 59.277200
v -4.157600 -9.717000 59.447200
v -4.157600 -9.707000 59.277200
v -4.237600 -9.717000 59.447200
v -4.207600 -9.997000 59.447200
v -4.117600 -9.997000 59.447200
v -4.237600 -9.717000 59.447200
v -4.117600 -9.997000 59.447200
v -4.157600 -9.717000 59.447200
v -4.207600 -9.997000 59.447200
v -4.207600 -9.987000 59.277200
v -4.117600 -9.987000 59.277200
v -4.207600 -9.997000 59.447200
v -4.117600 -9.987000 59.277200
v -4.117600 -9.997000 59.447200
v -4.207600 -10.007000 59.587200
v -4.207600 -10.017000 59.757200
v -4.237600 -9.737000 59.747200
v -4.207600 -10.007000 59.587200
v -4.237600 -9.737000 59.747200
v -4.237600 -9.727000 59.587200
v -4.117600 -10.007000 59.587200
v -4.157600 -9.727000 59.587200
v -4.157600 -9.737000 59.747200
v -4.117600 -10.007000 59.587200
v -4.157600 -9.737000 59.747200
v -4.117600 -10.017000 59.757200
v -4.237600 -9.727000 59.587200
v -4.237600 -9.737000 59.747200
v -4.157600 -9.737000 59.747200
v -4.237600 -9.727000 59.587200
v -4.157600 -9.737000 59.747200
v -4.157600 -9.727000 59.587200
v -4.237600 -9.737000 59.747200
v -4.207600 -10.017000 59.757200
v -4.117600 -10.017000 59.757200
v -4.237600 -9.737000 59.747200
v -4.117600 -10.017000 59.757200
v -4.157600 -9.737000 59.747200
v -4.207600 -10.017000 59.757200
v -4.207600 -10.007000 59.587200
v -4.117600 -10.007000 59.587200
v -4.207600 -10.017000 59.757200
v -4.117600 -10.007000 59.587200
v -4.117600 -10.017000 59.757200
v -5.177600 -9.417000 59.247200
v -5.177600 -9.467000 60.007200
v -4.257600 -9.467000 60.007200
v -5.177600 -9.417000 59.247200
v -4.257600 -9.467000 60.007200
v -4.257600 -9.417000 59.247200
v -4.257600 -9.467000 60.007200
v -5.177600 -9.467000 60.007200
v -4.997600 -9.737000 60.587200
v -4.257600 -9.467000 60.007200
v -4.997600 -9.737000 60.587200
v -4.387600 -9.737000 60.587200
v -4.727600 -9.207000 60.037200
v -4.767600 -11.807000 60.037200
v -4.487600 -11.807000 60.157200
v -4.727600 -9.207000 60.037200
v -4.487600 -11.807000 60.157200
v -4.467600 -9.207000 59.927200
v -4.467600 -9.207000 59.927200
v -4.487600 -11.807000 60.157200
v -4.197600 -11.807000 60.037200
v -4.467600 -9.207000 59.927200
v -4.197600 -11.807000 60.037200
v -4.357600 -9.187000 59.657200
v -4.357600 -9.187000 59.657200
v -4.197600 -11.807000 60.037200
v -4.077600 -11.787000 59.747200
v -4.357600 -9.187000 59.657200
v -4.077600 -11.787000 59.747200
v -4.467600 -9.177000 59.397200
v -4.467600 -9.177000 59.397200
v -4.077600 -11.787000 59.747200
v -4.197600 -11.767000 59.447200
v -4.467600 -9.177000 59.397200
v -4.197600 -11.767000 59.447200
v -4.727600 -9.167000 59.287200
v -4.727600 -9.167000 59.287200
v -4.197600 -11.767000 59.447200
v -4.487600 -11.767000 59.327200
v -4.807600 -8.417000 60.097200
v -4.987600 -9.227000 59.927200
v -4.727600 -9.237000 60.037200
v -4.807600 -8.417000 60.097200
v -4.727600 -9.237000 60.037200
v -4.477600 -8.447000 59.967200
v -4.477600 -8.447000 59.967200
v -4.727600 -9.237000 60.037200
v -4.467600 -9.227000 59.927200
v -4.477600 -8.447000 59.967200
v -4.467600 -9.227000 59.927200
v -4.327600 -8.527000 59.637200
v -4.327600 -8.527000 59.637200
v -4.467600 -9.227000 59.927200
v -4.357600 -9.207000 59.657200
v -4.327600 -8.527000 59.637200
v -4.357600 -9.207000 59.657200
v -4.457600 -8.607000 59.307200
v -4.457600 -8.607000 59.307200
v -4.357600 -9.207000 59.657200
v -4.467600 -9.197000 59.397200
v -4.457600 -8.607000 59.307200
v -4.467600 -9.197000 59.397200
v -4.777600 -8.637000 59.177200
v -4.777600 -8.637000 59.177200
v -4.467600 -9.197000 59.397200
v -4.727600 -9.187000 59.287200
v -4.557600 -10.987000 59.717200
v -4.457600 -8.607000 59.307200
v -4.777600 -8.637000 59.177200
v -4.557600 -10.987000 59.717200
v -4.327600 -8.527000 59.637200
v -4.457600 -8.607000 59.307200
v -4.557600 -10.987000 59.717200
v -4.477600 -8.447000 59.967200
v -4.327600 -8.527000 59.637200
v -4.557600 -10.987000 59.717200
v -4.807600 -8.417000 60.097200
v -4.477600 -8.447000 59.967200
v -4.557600 -10.987000 59.717200
v -5.137600 -8.447000 59.967200
v -4.807600 -8.417000 60.097200
v -5.257600 -8.527000 59.637200
v -5.137600 -8.447000 59.967200
v -4.557600 -10.987000 59.717200
v -5.257600 -8.527000 59.637200
v -4.557600 -10.987000 59.717200
v -5.117600 -8.607000 59.307200
v -5.117600 -8.607000 59.307200
v -4.557600 -10.987000 59.717200
v -4.777600 -8.637000 59.177200
v -4.897600 -11.787000 59.747200
v -4.767600 -11.807000 60.037200
v -4.987600 -9.207000 59.927200
v -4.897600 -11.787000 59.747200
v -4.987600 -9.207000 59.927200
v -5.097600 -9.187000 59.657200
v -5.097600 -9.207000 59.657200
v -4.987600 -9.227000 59.927200
v -5.137600 -8.447000 59.967200
v -5.097600 -9.207000 59.657200
v -5.137600 -8.447000 59.967200
v -5.257600 -8.527000 59.637200
v -4.987600 -9.207000 59.927200
v -4.767600 -11.807000 60.037200
v -4.727600 -9.207000 60.037200
v -5.137600 -8.447000 59.967200
v -4.987600 -9.227000 59.927200
v -4.807600 -8.417000 60.097200
v -5.927600 -10.197000 58.857200
v -6.227600 -10.207000 59.147200
v -6.257600 -9.297000 59.137200
v -5.927600 -10.197000 58.857200
v -6.257600 -9.297000 59.137200
v -5.967600 -9.207000 58.857200
v -5.627600 -9.387000 59.327200
v -5.717600 -9.397000 59.557200
v -5.167600 -9.657000 59.757200
v -5.627600 -9.387000 59.327200
v -5.167600 -9.657000 59.757200
v -5.167600 -9.637000 59.507200
v -5.627600 -9.387000 59.327200
v -5.967600 -9.207000 58.857200
v -5.717600 -9.397000 59.557200
v -6.257600 -9.297000 59.137200
v -5.717600 -9.397000 59.557200
v -5.967600 -9.207000 58.857200
v -5.577600 -10.127000 59.337200
v -5.627600 -9.387000 59.327200
v -5.167600 -9.637000 59.507200
v -5.577600 -10.127000 59.337200
v -5.167600 -9.637000 59.507200
v -5.147600 -9.917000 59.517200
v -5.627600 -9.387000 59.327200
v -5.577600 -10.127000 59.337200
v -5.927600 -10.197000 58.857200
v -5.627600 -9.387000 59.327200
v -5.927600 -10.197000 58.857200
v -5.967600 -9.207000 58.857200
v -5.717600 -9.397000 59.557200
v -5.677600 -10.147000 59.577200
v -5.147600 -9.927000 59.767200
v -5.717600 -9.397000 59.557200
v -5.147600 -9.927000 59.767200
v -5.167600 -9.657000 59.757200
v -5.677600 -10.147000 59.577200
v -5.717600 -9.397000 59.557200
v -6.257600 -9.297000 59.137200
v -5.677600 -10.147000 59.577200
v -6.257600 -9.297000 59.137200
v -6.227600 -10.207000 59.147200
v -7.157600 -27.207000 61.077200
v -7.157600 -26.487000 60.877200
v -5.867600 -26.487000 60.527200
v -7.157600 -27.207000 61.077200
v -5.867600 -26.487000 60.527200
v -5.777600 -27.207000 60.707200
v -5.777600 -27.207000 60.707200
v -5.867600 -26.487000 60.527200
v -4.927600 -26.487000 59.577200
v -5.777600 -27.207000 60.707200
v -4.927600 -26.487000 59.577200
v -4.757600 -27.207000 59.687200
v -4.757600 -27.207000 59.687200
v -4.927600 -26.487000 59.577200
v -4.577600 -26.487000 58.297200
v -4.757600 -27.207000 59.687200
v -4.577600 -26.487000 58.297200
v -4.387600 -27.207000 58.317200
v -4.387600 -27.207000 58.317200
v -4.577600 -26.487000 58.297200
v -4.927600 -26.487000 57.007200
v -4.387600 -27.207000 58.317200
v -4.927600 -26.487000 57.007200
v -4.757600 -27.207000 56.927200
v -4.757600 -27.207000 56.927200
v -4.927600 -26.487000 57.007200
v -5.867600 -26.487000 56.057200
v -4.757600 -27.207000 56.927200
v -5.867600 -26.487000 56.057200
v -5.777600 -27.207000 55.907200
v -5.777600 -27.207000 55.907200
v -5.867600 -26.487000 56.057200
v -7.157600 -26.487000 55.717200
v -5.777600 -27.207000 55.907200
v -7.157600 -26.487000 55.717200
v -7.157600 -27.207000 55.537200
v -7.157600 -27.207000 55.537200
v -7.157600 -26.487000 55.717200
v -8.447600 -26.487000 56.057200
v -7.157600 -27.207000 55.537200
v -8.447600 -26.487000 56.057200
v -8.537600 -27.207000 55.907200
v -8.537600 -27.207000 55.907200
v -8.447600 -26.487000 56.057200
v -9.387600 -26.487000 57.007200
v -8.537600 -27.207000 55.907200
v -9.387600 -26.487000 57.007200
v -9.557600 -27.207000 56.927200
v -9.557600 -27.207000 56.927200
v -9.387600 -26.487000 57.007200
v -9.737600 -26.487000 58.297200
v -9.557600 -27.207000 56.927200
v -9.737600 -26.487000 58.297200
v -9.927600 -27.207000 58.317200
v -9.927600 -27.207000 58.317200
v -9.737600 -26.487000 58.297200
v -9.387600 -26.487000 59.577200
v -9.927600 -27.207000 58.317200
v -9.387600 -26.487000 59.577200
v -9.557600 -27.207000 59.687200
v -9.557600 -27.207000 59.687200
v -9.387600 -26.487000 59.577200
v -8.447600 -26.487000 60.527200
v -9.557600 -27.207000 59.687200
v -8.447600 -26.487000 60.527200
v -8.537600 -27.207000 60.707200
v -8.537600 -27.207000 60.707200
v -8.447600 -26.487000 60.527200
v -7.157600 -26.487000 60.877200
v -8.537600 -27.207000 60.707200
v -7.157600 -26.487000 60.877200
v -7.157600 -27.207000 61.077200
v -4.747600 -21.847000 59.607200
v -5.767600 -21.847000 60.627200
v -5.607600 -27.017000 60.987200
v -4.747600 -21.847000 59.607200
v -5.607600 -27.017000 60.987200
v -4.477600 -27.017000 59.857200
v -5.767600 -21.847000 55.807200
v -4.747600 -21.847000 56.827200
v -4.477600 -27.017000 56.767200
v -5.767600 -21.847000 55.807200
v -4.477600 -27.017000 56.767200
v -5.607600 -27.017000 55.627200
v -10.247600 -27.017000 58.317200
v -9.827600 -27.017000 59.857200
v -9.507600 -26.487000 59.517200
v -10.247600 -27.017000 58.317200
v -9.507600 -26.487000 59.517200
v -9.837600 -26.487000 58.307200
v -9.827600 -27.017000 59.857200
v -9.567600 -21.847000 59.607200
v -9.297600 -21.817000 59.317200
v -9.827600 -27.017000 59.857200
v -9.297600 -21.817000 59.317200
v -9.507600 -26.487000 59.517200
v -8.697600 -27.017000 60.987200
v -7.157600 -27.017000 61.407200
v -7.157600 -26.487000 60.987200
v -8.697600 -27.017000 60.987200
v -7.157600 -26.487000 60.987200
v -8.367600 -26.487000 60.657200
v -7.157600 -27.017000 61.407200
v -5.607600 -27.017000 60.987200
v -5.937600 -26.487000 60.657200
v -7.157600 -27.017000 61.407200
v -5.937600 -26.487000 60.657200
v -7.157600 -26.487000 60.987200
v -5.607600 -27.017000 60.987200
v -5.767600 -21.847000 60.627200
v -6.047600 -21.817000 60.357200
v -5.607600 -27.017000 60.987200
v -6.047600 -21.817000 60.357200
v -5.937600 -26.487000 60.657200
v -4.747600 -21.847000 59.607200
v -4.477600 -27.017000 59.857200
v -4.797600 -26.487000 59.517200
v -4.747600 -21.847000 59.607200
v -4.797600 -26.487000 59.517200
v -5.017600 -21.817000 59.317200
v -4.477600 -27.017000 59.857200
v -4.057600 -27.017000 58.317200
v -4.467600 -26.487000 58.307200
v -4.477600 -27.017000 59.857200
v -4.467600 -26.487000 58.307200
v -4.797600 -26.487000 59.517200
v -4.057600 -27.017000 58.317200
v -4.477600 -27.017000 56.767200
v -4.797600 -26.487000 57.087200
v -4.057600 -27.017000 58.317200
v -4.797600 -26.487000 57.087200
v -4.467600 -26.487000 58.307200
v -4.477600 -27.017000 56.767200
v -4.747600 -21.847000 56.827200
v -5.017600 -21.817000 57.117200
v -4.477600 -27.017000 56.767200
v -5.017600 -21.817000 57.117200
v -4.797600 -26.487000 57.087200
v -5.607600 -27.017000 55.627200
v -7.157600 -27.017000 55.217200
v -7.157600 -26.487000 55.617200
v -5.607600 -27.017000 55.627200
v -7.157600 -26.487000 55.617200
v -5.937600 -26.487000 55.947200
v -7.157600 -27.017000 55.217200
v -8.697600 -27.017000 55.627200
v -8.367600 -26.487000 55.947200
v -7.157600 -27.017000 55.217200
v -8.367600 -26.487000 55.947200
v -7.157600 -26.487000 55.617200
v -8.697600 -27.017000 55.627200
v -8.537600 -21.847000 55.807200
v -8.257600 -21.817000 56.077200
v -8.697600 -27.017000 55.627200
v -8.257600 -21.817000 56.077200
v -8.367600 -26.487000 55.947200
v -9.567600 -21.847000 56.827200
v -9.827600 -27.017000 56.767200
v -9.507600 -26.487000 57.087200
v -9.567600 -21.847000 56.827200
v -9.507600 -26.487000 57.087200
v -9.297600 -21.817000 57.117200
v -9.827600 -27.017000 56.767200
v -10.247600 -27.017000 58.317200
v -9.837600 -26.487000 58.307200
v -9.827600 -27.017000 56.767200
v -9.837600 -26.487000 58.307200
v -9.507600 -26.487000 57.087200
v -8.367600 -26.487000 55.947200
v -8.257600 -21.817000 56.077200
v -9.297600 -21.817000 57.117200
v -8.367600 -26.487000 55.947200
v -9.297600 -21.817000 57.117200
v -9.507600 -26.487000 57.087200
v -6.047600 -21.817000 56.077200
v -5.937600 -26.487000 55.947200
v -4.797600 -26.487000 57.087200
v -6.047600 -21.817000 56.077200
v -4.797600 -26.487000 57.087200
v -5.017600 -21.817000 57.117200
v -8.257600 -21.817000 60.357200
v -8.367600 -26.487000 60.657200
v -9.507600 -26.487000 59.517200
v -8.257600 -21.817000 60.357200
v -9.507600 -26.487000 59.517200
v -9.297600 -21.817000 59.317200
v -8.697600 -27.017000 60.987200
v -8.367600 -26.487000 60.657200
v -8.537600 -21.847000 60.627200
v -8.257600 -21.817000 60.357200
v -8.537600 -21.847000 60.627200
v -8.367600 -26.487000 60.657200
v -4.387600 -22.637000 55.917200
v -4.527600 -23.057000 55.517200
v -4.567600 -23.057000 55.967200
v -4.387600 -22.637000 55.917200
v -4.567600 -23.057000 55.967200
v -4.207600 -22.637000 56.147200
v -4.207600 -22.637000 56.147200
v -4.567600 -23.057000 55.967200
v -4.287600 -23.057000 56.317200
v -4.207600 -22.637000 56.147200
v -4.287600 -23.057000 56.317200
v -3.927600 -22.637000 56.177200
v -3.927600 -22.637000 56.177200
v -4.287600 -23.057000 56.317200
v -3.837600 -23.057000 56.367200
v -3.927600 -22.637000 56.177200
v -3.837600 -23.057000 56.367200
v -3.697600 -22.637000 55.987200
v -3.697600 -22.637000 55.987200
v -3.837600 -23.057000 56.367200
v -3.487600 -23.057000 56.077200
v -3.697600 -22.637000 55.987200
v -3.487600 -23.057000 56.077200
v -3.667600 -22.637000 55.707200
v -3.667600 -22.637000 55.707200
v -3.487600 -23.057000 56.077200
v -3.437600 -23.057000 55.627200
v -3.667600 -22.637000 55.707200
v -3.437600 -23.057000 55.627200
v -3.847600 -22.637000 55.487200
v -3.847600 -22.637000 55.487200
v -3.437600 -23.057000 55.627200
v -3.717600 -23.057000 55.277200
v -4.047600 -22.397000 55.817200
v -3.927600 -22.637000 56.177200
v -3.697600 -22.637000 55.987200
v -4.047600 -22.397000 55.817200
v -4.207600 -22.637000 56.147200
v -3.927600 -22.637000 56.177200
v -4.047600 -22.397000 55.817200
v -4.387600 -22.637000 55.917200
v -4.207600 -22.637000 56.147200
v -4.047600 -22.397000 55.817200
v -4.357600 -22.637000 55.637200
v -4.387600 -22.637000 55.917200
v -4.047600 -22.397000 55.817200
v -4.137600 -22.637000 55.457200
v -4.357600 -22.637000 55.637200
v -4.047600 -22.397000 55.817200
v -3.847600 -22.637000 55.487200
v -4.137600 -22.637000 55.457200
v -4.047600 -22.397000 55.817200
v -3.667600 -22.637000 55.707200
v -3.847600 -22.637000 55.487200
v -4.047600 -22.397000 55.817200
v -3.697600 -22.637000 55.987200
v -3.667600 -22.637000 55.707200
v -3.837600 -23.057000 56.367200
v -4.097600 -26.147000 56.247200
v -3.617600 -26.147000 56.297200
v -3.837600 -23.057000 56.367200
v -3.617600 -26.147000 56.297200
v -3.487600 -23.057000 56.077200
v -3.487600 -23.057000 56.077200
v -3.617600 -26.147000 56.297200
v -3.247600 -26.147000 55.997200
v -3.487600 -23.057000 56.077200
v -3.247600 -26.147000 55.997200
v -3.437600 -23.057000 55.627200
v -3.437600 -23.057000 55.627200
v -3.247600 -26.147000 55.997200
v -3.197600 -26.147000 55.517200
v -3.437600 -23.057000 55.627200
v -3.197600 -26.147000 55.517200
v -3.717600 -23.057000 55.277200
v -3.717600 -23.057000 55.277200
v -3.197600 -26.147000 55.517200
v -3.497600 -26.147000 55.147200
v -4.347600 -26.147000 55.397200
v -4.397600 -26.147000 55.877200
v -4.567600 -23.057000 55.967200
v -4.347600 -26.147000 55.397200
v -4.567600 -23.057000 55.967200
v -4.527600 -23.057000 55.517200
v -4.287600 -23.057000 56.317200
v -4.567600 -23.057000 55.967200
v -5.457600 -23.057000 56.687200
v -4.287600 -23.057000 56.317200
v -5.457600 -23.057000 56.687200
v -5.177600 -23.057000 57.037200
v -4.097600 -26.147000 56.247200
v -4.287600 -23.057000 56.317200
v -5.177600 -23.057000 57.037200
v -4.097600 -26.147000 56.247200
v -5.177600 -23.057000 57.037200
v -5.047600 -26.147000 57.017200
v -4.567600 -23.057000 55.967200
v -4.397600 -26.147000 55.877200
v -5.347600 -26.147000 56.647200
v -4.567600 -23.057000 55.967200
v -5.347600 -26.147000 56.647200
v -5.457600 -23.057000 56.687200
v -4.357600 -22.637000 55.637200
v -4.527600 -23.057000 55.517200
v -4.387600 -22.637000 55.917200
v -4.287600 -23.057000 56.317200
v -4.097600 -26.147000 56.247200
v -3.837600 -23.057000 56.367200
v -7.777600 -5.417000 59.117200
v -8.277600 -6.527000 58.707200
v -7.797600 -6.527000 59.177200
v -7.777600 -5.417000 59.117200
v -7.797600 -6.527000 59.177200
v -7.137600 -5.417000 59.297200
v -7.137600 -5.417000 59.297200
v -7.797600 -6.527000 59.177200
v -7.137600 -6.527000 59.357200
v -7.137600 -5.417000 59.297200
v -7.137600 -6.527000 59.357200
v -6.497600 -5.417000 59.117200
v -6.497600 -5.417000 59.117200
v -7.137600 -6.527000 59.357200
v -6.477600 -6.527000 59.177200
v -6.497600 -5.417000 59.117200
v -6.477600 -6.527000 59.177200
v -6.037600 -5.417000 58.667200
v -6.037600 -5.417000 58.667200
v -6.477600 -6.527000 59.177200
v -5.997600 -6.527000 58.707200
v -6.037600 -5.417000 58.667200
v -5.997600 -6.527000 58.707200
v -5.857600 -5.417000 58.017200
v -5.857600 -5.417000 58.017200
v -5.997600 -6.527000 58.707200
v -5.817600 -6.527000 58.037200
v -5.857600 -5.417000 58.017200
v -5.817600 -6.527000 58.037200
v -6.037600 -5.417000 57.377200
v -6.037600 -5.417000 57.377200
v -5.817600 -6.527000 58.037200
v -5.997600 -6.527000 57.367200
v -6.037600 -5.417000 57.377200
v -5.997600 -6.527000 57.367200
v -6.497600 -5.417000 56.917200
v -6.497600 -5.417000 56.917200
v -5.997600 -6.527000 57.367200
v -6.477600 -6.527000 56.887200
v -7.797600 -6.527000 59.177200
v -8.327600 -8.137000 58.757200
v -7.827600 -8.137000 59.247200
v -7.797600 -6.527000 59.177200
v -7.827600 -8.137000 59.247200
v -7.137600 -6.527000 59.357200
v -7.137600 -6.527000 59.357200
v -7.827600 -8.137000 59.247200
v -7.137600 -8.137000 59.437200
v -7.137600 -6.527000 59.357200
v -7.137600 -8.137000 59.437200
v -6.477600 -6.527000 59.177200
v -6.477600 -6.527000 59.177200
v -7.137600 -8.137000 59.437200
v -6.437600 -8.137000 59.247200
v -6.477600 -6.527000 59.177200
v -6.437600 -8.137000 59.247200
v -5.997600 -6.527000 58.707200
v -5.997600 -6.527000 58.707200
v -6.437600 -8.137000 59.247200
v -5.947600 -8.137000 58.757200
v -5.997600 -6.527000 58.707200
v -5.947600 -8.137000 58.757200
v -5.817600 -6.527000 58.037200
v -5.817600 -6.527000 58.037200
v -5.947600 -8.137000 58.757200
v -5.757600 -8.137000 58.057200
v -5.817600 -6.527000 58.037200
v -5.757600 -8.137000 58.057200
v -5.997600 -6.527000 57.367200
v -5.997600 -6.527000 57.367200
v -5.757600 -8.137000 58.057200
v -5.947600 -8.137000 57.357200
v -5.997600 -6.527000 57.367200
v -5.947600 -8.137000 57.357200
v -6.477600 -6.527000 56.887200
v -6.477600 -6.527000 56.887200
v -5.947600 -8.137000 57.357200
v -6.437600 -8.137000 56.857200
v -7.827600 -8.137000 59.247200
v -8.407600 -10.417000 58.837200
v -7.877600 -10.417000 59.357200
v -7.827600 -8.137000 59.247200
v -7.877600 -10.417000 59.357200
v -7.137600 -8.137000 59.437200
v -7.137600 -8.137000 59.437200
v -7.877600 -10.417000 59.357200
v -7.137600 -10.417000 59.567200
v -7.137600 -8.137000 59.437200
v -7.137600 -10.417000 59.567200
v -6.437600 -8.137000 59.247200
v -6.437600 -8.137000 59.247200
v -7.137600 -10.417000 59.567200
v -6.397600 -10.417000 59.357200
v -6.437600 -8.137000 59.247200
v -6.397600 -10.417000 59.357200
v -5.947600 -8.137000 58.757200
v -5.947600 -8.137000 58.757200
v -6.397600 -10.417000 59.357200
v -5.867600 -10.417000 58.837200
v -5.947600 -8.137000 58.757200
v -5.867600 -10.417000 58.837200
v -5.757600 -8.137000 58.057200
v -5.757600 -8.137000 58.057200
v -5.867600 -10.417000 58.837200
v -5.667600 -10.417000 58.087200
v -5.757600 -8.137000 58.057200
v -5.667600 -10.417000 58.087200
v -5.947600 -8.137000 57.357200
v -5.947600 -8.137000 57.357200
v -5.667600 -10.417000 58.087200
v -5.867600 -10.417000 57.337200
v -5.947600 -8.137000 57.357200
v -5.867600 -10.417000 57.337200
v -6.437600 -8.137000 56.857200
v -6.437600 -8.137000 56.857200
v -5.867600 -10.417000 57.337200
v -6.397600 -10.417000 56.807200
v -7.137600 -15.707000 59.847200
v -8.087600 -20.977000 59.867200
v -7.137600 -20.977000 60.127200
v -7.137600 -15.707000 59.847200
v -7.137600 -20.977000 60.127200
v -6.287600 -15.707000 59.617200
v -6.287600 -15.707000 59.617200
v -7.137600 -20.977000 60.127200
v -6.187600 -20.977000 59.867200
v -6.287600 -15.707000 59.617200
v -6.187600 -20.977000 59.867200
v -5.687600 -15.707000 59.017200
v -5.687600 -15.707000 59.017200
v -6.187600 -20.977000 59.867200
v -5.507600 -20.977000 59.177200
v -5.687600 -15.707000 59.017200
v -5.507600 -20.977000 59.177200
v -5.457600 -15.707000 58.157200
v -5.457600 -15.707000 58.157200
v -5.507600 -20.977000 59.177200
v -5.247600 -20.977000 58.227200
v -5.457600 -15.707000 58.157200
v -5.247600 -20.977000 58.227200
v -5.507600 -20.977000 57.267200
v -6.397600 -10.417000 59.357200
v -6.287600 -15.707000 59.617200
v -5.687600 -15.707000 59.017200
v -6.397600 -10.417000 59.357200
v -5.687600 -15.707000 59.017200
v -5.867600 -10.417000 58.837200
v -5.867600 -10.417000 58.837200
v -5.687600 -15.707000 59.017200
v -5.457600 -15.707000 58.157200
v -5.867600 -10.417000 58.837200
v -5.457600 -15.707000 58.157200
v -5.667600 -10.417000 58.087200
v -5.667600 -10.417000 58.087200
v -5.457600 -15.707000 58.157200
v -5.867600 -10.417000 57.337200
v -8.087600 -20.977000 59.867200
v -7.137600 -10.417000 59.567200
v -7.877600 -10.417000 59.357200
v -8.087600 -20.977000 59.867200
v -7.877600 -10.417000 59.357200
v -8.767600 -20.977000 59.177200
v -8.767600 -20.977000 59.177200
v -7.877600 -10.417000 59.357200
v -8.407600 -10.417000 58.837200
v -6.187600 -20.977000 56.587200
v -6.397600 -10.417000 56.807200
v -5.867600 -10.417000 57.337200
v -6.187600 -20.977000 56.587200
v -5.867600 -10.417000 57.337200
v -5.507600 -20.977000 57.267200
v -5.507600 -20.977000 57.267200
v -5.867600 -10.417000 57.337200
v -5.457600 -15.707000 58.157200
v -6.287600 -15.707000 59.617200
v -6.397600 -10.417000 59.357200
v -7.137600 -10.417000 59.567200
v -6.287600 -15.707000 59.617200
v -7.137600 -10.417000 59.567200
v -7.137600 -15.707000 59.847200
v -8.277600 -6.527000 58.707200
v -8.327600 -8.137000 58.757200
v -7.797600 -6.527000 59.177200
v -8.327600 -8.137000 58.757200
v -8.407600 -10.417000 58.837200
v -7.827600 -8.137000 59.247200
v -7.137600 -15.707000 59.847200
v -7.137600 -10.417000 59.567200
v -8.087600 -20.977000 59.867200
vt 0.486100 0.805600
vt 0.236100 0.930600
vt 0.486100 0.986100
vt 0.486100 0.805600
vt 0.486100 0.986100
vt 0.638900 0.763900
vt 0.638900 0.763900
vt 0.486100 0.986100
vt 0.736100 0.930600
vt 0.638900 0.763900
vt 0.736100 0.930600
vt 0.763900 0.652800
vt 0.763900 0.652800
vt 0.736100 0.930600
vt 0.916700 0.750000
vt 0.763900 0.652800
vt 0.916700 0.750000
vt 0.805600 0.500000
vt 0.805600 0.500000
vt 0.916700 0.750000
vt 0.986100 0.500000
vt 0.805600 0.500000
vt 0.986100 0.500000
vt 0.763900 0.333300
vt 0.763900 0.333300
vt 0.986100 0.500000
vt 0.916700 0.250000
vt 0.763900 0.333300
vt 0.916700 0.250000
vt 0.638900 0.222200
vt 0.638900 0.222200
vt 0.916700 0.250000
vt 0.736100 0.069400
vt 0.638900 0.222200
vt 0.736100 0.069400
vt 0.486100 0.180600
vt 0.486100 0.180600
vt 0.736100 0.069400
vt 0.486100 0.000000
vt 0.055600 0.750000
vt 0.208300 0.652800
vt 0.000000 0.500000
vt 0.055600 0.750000
vt 0.263900 0.722200
vt 0.208300 0.652800
vt 0.055600 0.750000
vt 0.333300 0.763900
vt 0.263900 0.722200
vt 0.055600 0.750000
vt 0.236100 0.930600
vt 0.333300 0.763900
vt 0.208300 0.652800
vt 0.166700 0.500000
vt 0.000000 0.500000
vt 0.333300 0.763900
vt 0.236100 0.930600
vt 0.486100 0.805600
vt 0.992200 0.654900
vt 0.335900 0.654900
vt 0.250000 0.823000
vt 0.992200 0.654900
vt 0.250000 0.823000
vt 0.937500 0.823000
vt 0.937500 0.823000
vt 0.250000 0.823000
vt 0.000000 0.991200
vt 0.937500 0.823000
vt 0.000000 0.991200
vt 0.867200 0.991200
vt 0.335900 0.654900
vt 0.992200 0.654900
vt 0.929700 0.185800
vt 0.335900 0.654900
vt 0.929700 0.185800
vt 0.335900 0.185800
vt 0.929700 0.185800
vt 0.851600 0.088500
vt 0.335900 0.185800
vt 0.617200 0.000000
vt 0.335900 0.185800
vt 0.851600 0.088500
vt 0.000000 0.656200
vt 0.062500 0.828100
vt 0.812500 0.828100
vt 0.000000 0.656200
vt 0.812500 0.828100
vt 0.875000 0.656200
vt 0.812500 0.828100
vt 0.062500 0.828100
vt 0.125000 0.984400
vt 0.812500 0.828100
vt 0.125000 0.984400
vt 0.750000 0.984400
vt 0.000000 0.656200
vt 0.875000 0.656200
vt 0.937500 0.187500
vt 0.000000 0.656200
vt 0.937500 0.187500
vt 0.000000 0.187500
vt 0.000000 0.187500
vt 0.937500 0.187500
vt 0.625000 0.000000
vt 0.000000 0.187500
vt 0.625000 0.000000
vt 0.250000 0.000000
vt 0.937500 0.000000
vt 0.000000 0.000000
vt 0.000000 0.958300
vt 0.937500 0.000000
vt 0.000000 0.958300
vt 0.937500 0.958300
vt 0.000000 0.958300
vt 0.937500 0.958300
vt 0.937500 0.000000
vt 0.000000 0.958300
vt 0.937500 0.000000
vt 0.000000 0.000000
vt 0.453100 0.520800
vt 0.828100 0.145800
vt 0.984400 0.500000
vt 0.453100 0.520800
vt 0.484400 0.000000
vt 0.828100 0.145800
vt 0.453100 0.520800
vt 0.140600 0.145800
vt 0.484400 0.000000
vt 0.453100 0.520800
vt 0.000000 0.500000
vt 0.140600 0.145800
vt 0.453100 0.520800
vt 0.140600 0.854200
vt 0.000000 0.500000
vt 0.453100 0.520800
vt 0.484400 0.979200
vt 0.140600 0.854200
vt 0.453100 0.520800
vt 0.828100 0.854200
vt 0.484400 0.979200
vt 0.453100 0.520800
vt 0.984400 0.500000
vt 0.828100 0.854200
vt 0.000000 0.979200
vt 0.984400 0.979200
vt 0.984400 0.000000
vt 0.000000 0.979200
vt 0.984400 0.000000
vt 0.000000 0.000000
vt 0.937500 0.187500
vt 0.250000 0.187500
vt 0.250000 0.812500
vt 0.937500 0.187500
vt 0.250000 0.812500
vt 0.937500 0.812500
vt 0.875000 0.937500
vt 0.000000 0.937500
vt 0.250000 0.000000
vt 0.875000 0.937500
vt 0.250000 0.000000
vt 0.937500 0.000000
vt 0.937500 0.937500
vt 0.000000 0.937500
vt 0.125000 0.000000
vt 0.937500 0.937500
vt 0.125000 0.000000
vt 0.750000 0.000000
vt 0.000000 0.937500
vt 0.875000 0.937500
vt 0.937500 0.000000
vt 0.000000 0.937500
vt 0.937500 0.000000
vt 0.250000 0.000000
vt 0.968800 0.000000
vt 0.000000 0.000000
vt 0.000000 0.958300
vt 0.968800 0.000000
vt 0.000000 0.958300
vt 0.968800 0.958300
vt 0.687500 0.937500
vt 0.937500 0.937500
vt 0.937500 0.000000
vt 0.687500 0.937500
vt 0.937500 0.000000
vt 0.687500 0.000000
vt 0.000000 0.937500
vt 0.187500 0.937500
vt 0.187500 0.000000
vt 0.000000 0.937500
vt 0.187500 0.000000
vt 0.000000 0.000000
vt 0.187500 0.937500
vt 0.437500 0.937500
vt 0.437500 0.000000
vt 0.187500 0.937500
vt 0.437500 0.000000
vt 0.187500 0.000000
vt 0.888900 0.000000
vt 0.000000 0.500000
vt 0.000000 0.875000
vt 0.888900 0.000000
vt 0.000000 0.875000
vt 0.986100 0.750000
vt 0.958300 0.968800
vt 0.958300 0.000000
vt 0.375000 0.000000
vt 0.958300 0.968800
vt 0.375000 0.000000
vt 0.375000 0.968800
vt 0.000000 0.968800
vt 0.000000 0.000000
vt 0.875000 0.000000
vt 0.000000 0.968800
vt 0.875000 0.000000
vt 0.875000 0.968800
vt 0.000000 0.000000
vt 0.000000 0.968800
vt 0.958300 0.968800
vt 0.000000 0.000000
vt 0.958300 0.968800
vt 0.958300 0.000000
vt 0.375000 0.968800
vt 0.375000 0.000000
vt 0.000000 0.187500
vt 0.375000 0.968800
vt 0.000000 0.187500
vt 0.000000 0.812500
vt 0.916700 0.406200
vt 0.791700 0.406200
vt 0.791700 0.218800
vt 0.916700 0.406200
vt 0.791700 0.218800
vt 0.916700 0.218800
vt 0.916700 0.406200
vt 0.916700 0.218800
vt 0.791700 0.218800
vt 0.916700 0.406200
vt 0.791700 0.218800
vt 0.791700 0.406200
vt 0.916700 0.218800
vt 0.791700 0.218800
vt 0.791700 0.218800
vt 0.916700 0.218800
vt 0.791700 0.218800
vt 0.916700 0.218800
vt 0.791700 0.218800
vt 0.791700 0.406200
vt 0.791700 0.406200
vt 0.791700 0.218800
vt 0.791700 0.406200
vt 0.791700 0.218800
vt 0.791700 0.406200
vt 0.916700 0.406200
vt 0.916700 0.406200
vt 0.791700 0.406200
vt 0.916700 0.406200
vt 0.791700 0.406200
vt 0.708300 0.406200
vt 0.583300 0.406200
vt 0.583300 0.218800
vt 0.708300 0.406200
vt 0.583300 0.218800
vt 0.708300 0.218800
vt 0.708300 0.406200
vt 0.708300 0.218800
vt 0.583300 0.218800
vt 0.708300 0.406200
vt 0.583300 0.218800
vt 0.583300 0.406200
vt 0.708300 0.218800
vt 0.583300 0.218800
vt 0.583300 0.218800
vt 0.708300 0.218800
vt 0.583300 0.218800
vt 0.708300 0.218800
vt 0.583300 0.218800
vt 0.583300 0.406200
vt 0.583300 0.406200
vt 0.583300 0.218800
vt 0.583300 0.406200
vt 0.583300 0.218800
vt 0.583300 0.406200
vt 0.708300 0.406200
vt 0.708300 0.406200
vt 0.583300 0.406200
vt 0.708300 0.406200
vt 0.583300 0.406200
vt 0.000000 0.000000
vt 0.000000 0.562500
vt 0.958300 0.562500
vt 0.000000 0.000000
vt 0.958300 0.562500
vt 0.958300 0.000000
vt 0.958300 0.562500
vt 0.000000 0.562500
vt 0.166700 0.968800
vt 0.958300 0.562500
vt 0.166700 0.968800
vt 0.750000 0.968800
vt 0.175000 0.250000
vt 0.000000 0.979200
vt 0.175000 0.979200
vt 0.175000 0.250000
vt 0.175000 0.979200
vt 0.375000 0.250000
vt 0.375000 0.250000
vt 0.175000 0.979200
vt 0.375000 0.979200
vt 0.375000 0.250000
vt 0.375000 0.979200
vt 0.550000 0.250000
vt 0.550000 0.250000
vt 0.375000 0.979200
vt 0.550000 0.979200
vt 0.550000 0.250000
vt 0.550000 0.979200
vt 0.750000 0.250000
vt 0.750000 0.250000
vt 0.550000 0.979200
vt 0.750000 0.979200
vt 0.750000 0.250000
vt 0.750000 0.979200
vt 0.950000 0.250000
vt 0.950000 0.250000
vt 0.750000 0.979200
vt 0.950000 0.979200
vt 0.175000 0.000000
vt 0.000000 0.250000
vt 0.175000 0.250000
vt 0.175000 0.000000
vt 0.175000 0.250000
vt 0.375000 0.020800
vt 0.375000 0.020800
vt 0.175000 0.250000
vt 0.375000 0.250000
vt 0.375000 0.020800
vt 0.375000 0.250000
vt 0.550000 0.041700
vt 0.550000 0.041700
vt 0.375000 0.250000
vt 0.550000 0.250000
vt 0.550000 0.041700
vt 0.550000 0.250000
vt 0.750000 0.083300
vt 0.750000 0.083300
vt 0.550000 0.250000
vt 0.750000 0.250000
vt 0.750000 0.083300
vt 0.750000 0.250000
vt 0.950000 0.083300
vt 0.950000 0.083300
vt 0.750000 0.250000
vt 0.950000 0.250000
vt 0.800000 0.770800
vt 0.750000 0.083300
vt 0.950000 0.083300
vt 0.800000 0.770800
vt 0.550000 0.041700
vt 0.750000 0.083300
vt 0.800000 0.770800
vt 0.375000 0.020800
vt 0.550000 0.041700
vt 0.800000 0.770800
vt 0.175000 0.000000
vt 0.375000 0.020800
vt 0.800000 0.770800
vt 0.000000 0.020800
vt 0.175000 0.000000
vt 0.550000 0.041700
vt 0.750000 0.020800
vt 0.025000 0.770800
vt 0.550000 0.041700
vt 0.025000 0.770800
vt 0.375000 0.083300
vt 0.375000 0.083300
vt 0.025000 0.770800
vt 0.175000 0.083300
vt 0.550000 0.979200
vt 0.750000 0.979200
vt 0.750000 0.250000
vt 0.550000 0.979200
vt 0.750000 0.250000
vt 0.550000 0.250000
vt 0.550000 0.250000
vt 0.750000 0.250000
vt 0.750000 0.020800
vt 0.550000 0.250000
vt 0.750000 0.020800
vt 0.550000 0.041700
vt 0.000000 0.250000
vt 0.000000 0.979200
vt 0.175000 0.250000
vt 0.000000 0.020800
vt 0.000000 0.250000
vt 0.175000 0.000000
vt 0.083300 0.550000
vt 0.416700 0.800000
vt 0.333300 0.950000
vt 0.083300 0.550000
vt 0.333300 0.950000
vt 0.000000 0.700000
vt 0.416700 0.400000
vt 0.666700 0.500000
vt 0.875000 0.000000
vt 0.416700 0.400000
vt 0.875000 0.000000
vt 0.625000 0.000000
vt 0.416700 0.400000
vt 0.000000 0.700000
vt 0.666700 0.500000
vt 0.333300 0.950000
vt 0.666700 0.500000
vt 0.000000 0.700000
vt 0.083300 0.421100
vt 0.833300 0.421100
vt 0.583300 0.000000
vt 0.083300 0.421100
vt 0.583300 0.000000
vt 0.291700 0.000000
vt 0.833300 0.421100
vt 0.083300 0.421100
vt 0.000000 0.947400
vt 0.833300 0.421100
vt 0.000000 0.947400
vt 0.958300 0.947400
vt 0.083300 0.473700
vt 0.833300 0.473700
vt 0.625000 0.000000
vt 0.083300 0.473700
vt 0.625000 0.000000
vt 0.333300 0.000000
vt 0.833300 0.473700
vt 0.083300 0.473700
vt 0.000000 0.947400
vt 0.833300 0.473700
vt 0.000000 0.947400
vt 0.958300 0.947400
vt 0.041700 0.020800
vt 0.083300 0.145800
vt 0.312500 0.145800
vt 0.041700 0.020800
vt 0.312500 0.145800
vt 0.312500 0.020800
vt 0.312500 0.020800
vt 0.312500 0.145800
vt 0.604200 0.145800
vt 0.312500 0.020800
vt 0.604200 0.145800
vt 0.604200 0.020800
vt 0.604200 0.020800
vt 0.604200 0.145800
vt 0.833300 0.145800
vt 0.604200 0.020800
vt 0.833300 0.145800
vt 0.875000 0.020800
vt 0.062500 0.020800
vt 0.083300 0.145800
vt 0.333300 0.145800
vt 0.062500 0.020800
vt 0.333300 0.145800
vt 0.312500 0.020800
vt 0.312500 0.020800
vt 0.333300 0.145800
vt 0.604200 0.145800
vt 0.312500 0.020800
vt 0.604200 0.145800
vt 0.604200 0.020800
vt 0.604200 0.020800
vt 0.604200 0.145800
vt 0.833300 0.145800
vt 0.604200 0.020800
vt 0.833300 0.145800
vt 0.854200 0.020800
vt 0.875000 0.041700
vt 0.833300 0.166700
vt 0.604200 0.187500
vt 0.875000 0.041700
vt 0.604200 0.187500
vt 0.604200 0.062500
vt 0.604200 0.062500
vt 0.604200 0.187500
vt 0.312500 0.187500
vt 0.604200 0.062500
vt 0.312500 0.187500
vt 0.312500 0.062500
vt 0.312500 0.062500
vt 0.312500 0.187500
vt 0.083300 0.166700
vt 0.312500 0.062500
vt 0.083300 0.166700
vt 0.041700 0.041700
vt 0.854200 0.041700
vt 0.833300 0.166700
vt 0.604200 0.166700
vt 0.854200 0.041700
vt 0.604200 0.166700
vt 0.604200 0.041700
vt 0.604200 0.041700
vt 0.604200 0.166700
vt 0.333300 0.166700
vt 0.604200 0.041700
vt 0.333300 0.166700
vt 0.312500 0.041700
vt 0.312500 0.041700
vt 0.333300 0.166700
vt 0.083300 0.166700
vt 0.312500 0.041700
vt 0.083300 0.166700
vt 0.062500 0.041700
vt 0.625000 0.937500
vt 0.312500 0.937500
vt 0.291700 0.041700
vt 0.625000 0.937500
vt 0.291700 0.041700
vt 0.625000 0.041700
vt 0.625000 0.958300
vt 0.333300 0.958300
vt 0.291700 0.041700
vt 0.625000 0.958300
vt 0.291700 0.041700
vt 0.625000 0.041700
vt 0.916700 0.062500
vt 0.625000 0.083300
vt 0.625000 0.166700
vt 0.916700 0.062500
vt 0.625000 0.166700
vt 0.854200 0.166700
vt 0.625000 0.083300
vt 0.625000 0.979200
vt 0.625000 0.979200
vt 0.625000 0.083300
vt 0.625000 0.979200
vt 0.625000 0.166700
vt 0.291700 0.083300
vt 0.000000 0.062500
vt 0.062500 0.166700
vt 0.291700 0.083300
vt 0.062500 0.166700
vt 0.291700 0.166700
vt 0.000000 0.062500
vt 0.291700 0.041700
vt 0.291700 0.145800
vt 0.000000 0.062500
vt 0.291700 0.145800
vt 0.062500 0.145800
vt 0.291700 0.041700
vt 0.312500 0.937500
vt 0.312500 0.958300
vt 0.291700 0.041700
vt 0.312500 0.958300
vt 0.291700 0.145800
vt 0.625000 0.937500
vt 0.625000 0.041700
vt 0.625000 0.145800
vt 0.625000 0.937500
vt 0.625000 0.145800
vt 0.625000 0.958300
vt 0.625000 0.041700
vt 0.916700 0.062500
vt 0.854200 0.145800
vt 0.625000 0.041700
vt 0.854200 0.145800
vt 0.625000 0.145800
vt 0.000000 0.041700
vt 0.291700 0.041700
vt 0.291700 0.145800
vt 0.000000 0.041700
vt 0.291700 0.145800
vt 0.062500 0.145800
vt 0.291700 0.041700
vt 0.333300 0.958300
vt 0.312500 0.958300
vt 0.291700 0.041700
vt 0.312500 0.958300
vt 0.291700 0.145800
vt 0.625000 0.041700
vt 0.916700 0.041700
vt 0.854200 0.145800
vt 0.625000 0.041700
vt 0.854200 0.145800
vt 0.625000 0.145800
vt 0.916700 0.083300
vt 0.625000 0.083300
vt 0.625000 0.187500
vt 0.916700 0.083300
vt 0.625000 0.187500
vt 0.854200 0.166700
vt 0.625000 0.083300
vt 0.625000 0.979200
vt 0.625000 0.979200
vt 0.625000 0.083300
vt 0.625000 0.979200
vt 0.625000 0.187500
vt 0.312500 0.979200
vt 0.291700 0.083300
vt 0.291700 0.187500
vt 0.312500 0.979200
vt 0.291700 0.187500
vt 0.312500 0.979200
vt 0.291700 0.083300
vt 0.000000 0.083300
vt 0.062500 0.166700
vt 0.291700 0.083300
vt 0.062500 0.166700
vt 0.291700 0.187500
vt 0.625000 0.187500
vt 0.625000 0.979200
vt 0.312500 0.979200
vt 0.625000 0.187500
vt 0.312500 0.979200
vt 0.291700 0.187500
vt 0.958300 0.000000
vt 0.958300 0.854200
vt 0.958300 0.854200
vt 0.958300 0.000000
vt 0.958300 0.854200
vt 0.958300 0.000000
vt 0.645800 0.000000
vt 0.645800 0.854200
vt 0.270800 0.854200
vt 0.645800 0.000000
vt 0.270800 0.854200
vt 0.250000 0.000000
vt 0.291700 0.083300
vt 0.291700 0.166700
vt 0.333300 0.979200
vt 0.645800 0.000000
vt 0.604200 0.020800
vt 0.645800 0.854200
vt 0.916700 0.644400
vt 0.791700 0.733300
vt 0.791700 0.577800
vt 0.916700 0.644400
vt 0.791700 0.577800
vt 0.916700 0.600000
vt 0.916700 0.600000
vt 0.791700 0.577800
vt 0.791700 0.511100
vt 0.916700 0.600000
vt 0.791700 0.511100
vt 0.895800 0.644400
vt 0.895800 0.644400
vt 0.791700 0.511100
vt 0.791700 0.577800
vt 0.895800 0.644400
vt 0.791700 0.577800
vt 0.895800 0.733300
vt 0.895800 0.733300
vt 0.791700 0.577800
vt 0.791700 0.733300
vt 0.895800 0.733300
vt 0.791700 0.733300
vt 0.895800 0.844400
vt 0.895800 0.844400
vt 0.791700 0.733300
vt 0.791700 0.911100
vt 0.895800 0.844400
vt 0.791700 0.911100
vt 0.916700 0.888900
vt 0.916700 0.888900
vt 0.791700 0.911100
vt 0.791700 0.977800
vt 0.979200 0.733300
vt 0.895800 0.644400
vt 0.895800 0.733300
vt 0.979200 0.733300
vt 0.916700 0.600000
vt 0.895800 0.644400
vt 0.979200 0.733300
vt 0.916700 0.644400
vt 0.916700 0.600000
vt 0.979200 0.733300
vt 0.916700 0.733300
vt 0.916700 0.644400
vt 0.979200 0.733300
vt 0.916700 0.844400
vt 0.916700 0.733300
vt 0.979200 0.733300
vt 0.916700 0.888900
vt 0.916700 0.844400
vt 0.979200 0.733300
vt 0.895800 0.844400
vt 0.916700 0.888900
vt 0.979200 0.733300
vt 0.895800 0.733300
vt 0.895800 0.844400
vt 0.791700 0.577800
vt 0.000000 0.511100
vt 0.000000 0.577800
vt 0.791700 0.577800
vt 0.000000 0.577800
vt 0.791700 0.733300
vt 0.791700 0.733300
vt 0.000000 0.577800
vt 0.000000 0.733300
vt 0.791700 0.733300
vt 0.000000 0.733300
vt 0.791700 0.911100
vt 0.791700 0.911100
vt 0.000000 0.733300
vt 0.000000 0.911100
vt 0.791700 0.911100
vt 0.000000 0.911100
vt 0.791700 0.977800
vt 0.791700 0.977800
vt 0.000000 0.911100
vt 0.000000 0.977800
vt 0.000000 0.733300
vt 0.000000 0.577800
vt 0.791700 0.577800
vt 0.000000 0.733300
vt 0.791700 0.577800
vt 0.791700 0.733300
vt 0.791700 0.511100
vt 0.791700 0.577800
vt 0.791700 0.155600
vt 0.791700 0.511100
vt 0.791700 0.155600
vt 0.791700 0.088900
vt 0.000000 0.511100
vt 0.791700 0.511100
vt 0.791700 0.088900
vt 0.000000 0.511100
vt 0.791700 0.088900
vt 0.000000 0.088900
vt 0.520800 0.866700
vt 0.520800 0.000000
vt 0.375000 0.000000
vt 0.520800 0.866700
vt 0.375000 0.000000
vt 0.375000 0.866700
vt 0.916700 0.733300
vt 0.791700 0.733300
vt 0.916700 0.644400
vt 0.791700 0.511100
vt 0.000000 0.511100
vt 0.791700 0.577800
vt 0.065800 0.000000
vt 0.250000 0.075000
vt 0.065800 0.075000
vt 0.065800 0.000000
vt 0.065800 0.075000
vt 0.000000 0.000000
vt 0.000000 0.000000
vt 0.065800 0.075000
vt 0.000000 0.075000
vt 0.000000 0.000000
vt 0.000000 0.075000
vt 0.065800 0.000000
vt 0.065800 0.000000
vt 0.000000 0.075000
vt 0.065800 0.075000
vt 0.065800 0.000000
vt 0.065800 0.075000
vt 0.250000 0.000000
vt 0.250000 0.000000
vt 0.065800 0.075000
vt 0.250000 0.075000
vt 0.250000 0.000000
vt 0.250000 0.075000
vt 0.513200 0.000000
vt 0.513200 0.000000
vt 0.250000 0.075000
vt 0.513200 0.075000
vt 0.513200 0.000000
vt 0.513200 0.075000
vt 0.776300 0.000000
vt 0.776300 0.000000
vt 0.513200 0.075000
vt 0.776300 0.075000
vt 0.776300 0.000000
vt 0.776300 0.075000
vt 0.960500 0.000000
vt 0.960500 0.000000
vt 0.776300 0.075000
vt 0.960500 0.075000
vt 0.065800 0.075000
vt 0.250000 0.175000
vt 0.065800 0.175000
vt 0.065800 0.075000
vt 0.065800 0.175000
vt 0.000000 0.075000
vt 0.000000 0.075000
vt 0.065800 0.175000
vt 0.000000 0.175000
vt 0.000000 0.075000
vt 0.000000 0.175000
vt 0.065800 0.075000
vt 0.065800 0.075000
vt 0.000000 0.175000
vt 0.065800 0.175000
vt 0.065800 0.075000
vt 0.065800 0.175000
vt 0.250000 0.075000
vt 0.250000 0.075000
vt 0.065800 0.175000
vt 0.250000 0.175000
vt 0.250000 0.075000
vt 0.250000 0.175000
vt 0.513200 0.075000
vt 0.513200 0.075000
vt 0.250000 0.175000
vt 0.513200 0.175000
vt 0.513200 0.075000
vt 0.513200 0.175000
vt 0.776300 0.075000
vt 0.776300 0.075000
vt 0.513200 0.175000
vt 0.776300 0.175000
vt 0.776300 0.075000
vt 0.776300 0.175000
vt 0.960500 0.075000
vt 0.960500 0.075000
vt 0.776300 0.175000
vt 0.960500 0.175000
vt 0.065800 0.175000
vt 0.250000 0.325000
vt 0.065800 0.325000
vt 0.065800 0.175000
vt 0.065800 0.325000
vt 0.000000 0.175000
vt 0.000000 0.175000
vt 0.065800 0.325000
vt 0.000000 0.325000
vt 0.000000 0.175000
vt 0.000000 0.325000
vt 0.065800 0.175000
vt 0.065800 0.175000
vt 0.000000 0.325000
vt 0.065800 0.325000
vt 0.065800 0.175000
vt 0.065800 0.325000
vt 0.250000 0.175000
vt 0.250000 0.175000
vt 0.065800 0.325000
vt 0.250000 0.325000
vt 0.250000 0.175000
vt 0.250000 0.325000
vt 0.513200 0.175000
vt 0.513200 0.175000
vt 0.250000 0.325000
vt 0.513200 0.325000
vt 0.513200 0.175000
vt 0.513200 0.325000
vt 0.776300 0.175000
vt 0.776300 0.175000
vt 0.513200 0.325000
vt 0.776300 0.325000
vt 0.776300 0.175000
vt 0.776300 0.325000
vt 0.960500 0.175000
vt 0.960500 0.175000
vt 0.776300 0.325000
vt 0.960500 0.325000
vt 0.000000 0.662500
vt 0.065800 0.993800
vt 0.000000 0.993800
vt 0.000000 0.662500
vt 0.000000 0.993800
vt 0.065800 0.662500
vt 0.065800 0.662500
vt 0.000000 0.993800
vt 0.065800 0.993800
vt 0.065800 0.662500
vt 0.065800 0.993800
vt 0.250000 0.662500
vt 0.250000 0.662500
vt 0.065800 0.993800
vt 0.250000 0.993800
vt 0.250000 0.662500
vt 0.250000 0.993800
vt 0.513200 0.662500
vt 0.513200 0.662500
vt 0.250000 0.993800
vt 0.513200 0.993800
vt 0.513200 0.662500
vt 0.513200 0.993800
vt 0.776300 0.993800
vt 0.065800 0.325000
vt 0.065800 0.662500
vt 0.250000 0.662500
vt 0.065800 0.325000
vt 0.250000 0.662500
vt 0.250000 0.325000
vt 0.250000 0.325000
vt 0.250000 0.662500
vt 0.513200 0.662500
vt 0.250000 0.325000
vt 0.513200 0.662500
vt 0.513200 0.325000
vt 0.513200 0.325000
vt 0.513200 0.662500
vt 0.776300 0.325000
vt 0.065800 0.993800
vt 0.000000 0.325000
vt 0.065800 0.325000
vt 0.065800 0.993800
vt 0.065800 0.325000
vt 0.250000 0.993800
vt 0.250000 0.993800
vt 0.065800 0.325000
vt 0.250000 0.325000
vt 0.960500 0.993800
vt 0.960500 0.325000
vt 0.776300 0.325000
vt 0.960500 0.993800
vt 0.776300 0.325000
vt 0.776300 0.993800
vt 0.776300 0.993800
vt 0.776300 0.325000
vt 0.513200 0.662500
vt 0.065800 0.662500
vt 0.065800 0.325000
vt 0.000000 0.325000
vt 0.065800 0.662500
vt 0.000000 0.325000
vt 0.000000 0.662500
vt 0.250000 0.075000
vt 0.250000 0.175000
vt 0.065800 0.075000
vt 0.250000 0.175000
vt 0.250000 0.325000
vt 0.065800 0.175000
vt 0.000000 0.662500
vt 0.000000 0.325000
vt 0.065800 0.993800
vn 0.000000 0.662400 0.749100
vn -0.375100 0.661600 0.649300
vn 0.066800 0.660900 0.747500
vn 0.000000 0.662400 0.749100
vn 0.066800 0.660900 0.747500
vn 0.316300 0.660400 0.681100
vn 0.316300 0.660400 0.681100
vn 0.066800 0.660900 0.747500
vn 0.432200 0.659900 0.614600
vn 0.316300 0.660400 0.681100
vn 0.432200 0.659900 0.614600
vn 0.615900 0.658400 0.432600
vn 0.615900 0.658400 0.432600
vn 0.432200 0.659900 0.614600
vn 0.683600 0.657400 0.317000
vn 0.615900 0.658400 0.432600
vn 0.683600 0.657400 0.317000
vn 0.752300 0.655400 0.066900
vn 0.752300 0.655400 0.066900
vn 0.683600 0.657400 0.317000
vn 0.753200 0.654300 -0.067600
vn 0.752300 0.655400 0.066900
vn 0.753200 0.654300 -0.067600
vn 0.687400 0.652300 -0.319300
vn 0.687400 0.652300 -0.319300
vn 0.753200 0.654300 -0.067600
vn 0.620600 0.651300 -0.436600
vn 0.687400 0.652300 -0.319300
vn 0.620600 0.651300 -0.436600
vn 0.371900 0.651000 -0.661700
vn 0.371900 0.651000 -0.661700
vn 0.620600 0.651300 -0.436600
vn 0.242100 0.674000 -0.697900
vn 0.371900 0.651000 -0.661700
vn 0.242100 0.674000 -0.697900
vn 0.079000 0.662300 -0.745100
vn 0.079000 0.662300 -0.745100
vn 0.242100 0.674000 -0.697900
vn 0.178700 0.723400 -0.666900
vn -0.604600 0.643900 0.468900
vn -0.699400 0.655200 0.285500
vn -0.738100 0.645000 0.197800
vn -0.604600 0.643900 0.468900
vn -0.552000 0.621500 0.555900
vn -0.699400 0.655200 0.285500
vn -0.604600 0.643900 0.468900
vn -0.517500 0.613800 0.596200
vn -0.552000 0.621500 0.555900
vn -0.604600 0.643900 0.468900
vn -0.375100 0.661600 0.649300
vn -0.517500 0.613800 0.596200
vn -0.699400 0.655200 0.285500
vn -0.738100 0.645000 0.197800
vn -0.738100 0.645000 0.197800
vn -0.196800 0.649500 0.734500
vn -0.196800 0.649500 0.734500
vn -0.196800 0.649500 0.734500
vn 0.988000 0.024000 0.152300
vn 0.988000 0.024000 0.152300
vn 0.988000 0.024000 0.152300
vn 0.988000 0.024000 0.152300
vn 0.988000 0.024000 0.152300
vn 0.988000 0.024000 0.152300
vn 0.998500 0.025500 0.048100
vn 0.998500 0.025500 0.048100
vn 0.998500 0.025500 0.048100
vn 0.998500 0.025500 0.048100
vn 0.998500 0.025500 0.048100
vn 0.998500 0.025500 0.048100
vn 0.998500 0.025500 0.048100
vn 0.998500 0.025500 0.048100
vn 0.998500 0.025500 0.048100
vn 0.998500 0.025500 0.048100
vn 0.998500 0.025500 0.048100
vn 0.998500 0.025500 0.048100
vn 0.741000 0.066800 -0.668200
vn 0.741000 0.066800 -0.668200
vn 0.741000 0.066800 -0.668200
vn 0.958200 0.008700 -0.286100
vn 0.958200 0.008700 -0.286100
vn 0.958200 0.008700 -0.286100
vn 0.000000 0.529200 -0.848500
vn 0.000000 0.529200 -0.848500
vn 0.000000 0.529200 -0.848500
vn 0.000000 0.529200 -0.848500
vn 0.000000 0.529200 -0.848500
vn 0.000000 0.529200 -0.848500
vn 0.000000 0.193700 -0.981100
vn 0.000000 0.193700 -0.981100
vn 0.000000 0.193700 -0.981100
vn 0.000000 0.193700 -0.981100
vn 0.000000 0.193700 -0.981100
vn 0.000000 0.193700 -0.981100
vn 0.000000 1.000000 -0.004000
vn 0.000000 1.000000 -0.004000
vn 0.000000 1.000000 -0.004000
vn 0.000000 1.000000 -0.004000
vn 0.000000 1.000000 -0.004000
vn 0.000000 1.000000 -0.004000
vn 0.000000 0.269600 -0.963000
vn 0.000000 0.269600 -0.963000
vn 0.000000 0.269600 -0.963000
vn 0.000000 0.269600 -0.963000
vn 0.000000 0.269600 -0.963000
vn 0.000000 0.269600 -0.963000
vn 0.994900 0.100500 0.000000
vn 0.994900 0.100500 0.000000
vn 0.994900 0.100500 0.000000
vn 0.994900 0.100500 0.000000
vn 0.994900 0.100500 0.000000
vn 0.994900 0.100500 0.000000
vn -0.000000 -0.262200 0.965000
vn -0.000000 -0.262200 0.965000
vn -0.000000 -0.262200 0.965000
vn -0.000000 -0.262200 0.965000
vn -0.000000 -0.262200 0.965000
vn -0.000000 -0.262200 0.965000
vn -0.019300 0.998600 0.049700
vn 0.465900 0.722000 0.511500
vn 0.671800 0.739000 0.050700
vn -0.019300 0.998600 0.049700
vn -0.004000 0.704000 0.710200
vn 0.465900 0.722000 0.511500
vn -0.019300 0.998600 0.049700
vn -0.494900 0.688800 0.529700
vn -0.004000 0.704000 0.710200
vn -0.019300 0.998600 0.049700
vn -0.722700 0.689600 0.046600
vn -0.494900 0.688800 0.529700
vn -0.019300 0.998600 0.049700
vn -0.524600 0.713800 -0.464000
vn -0.722700 0.689600 0.046600
vn -0.019300 0.998600 0.049700
vn -0.004300 0.742400 -0.669900
vn -0.524600 0.713800 -0.464000
vn -0.019300 0.998600 0.049700
vn 0.494200 0.750200 -0.439200
vn -0.004300 0.742400 -0.669900
vn -0.019300 0.998600 0.049700
vn 0.671800 0.739000 0.050700
vn 0.494200 0.750200 -0.439200
vn 0.000000 0.769900 0.638200
vn 0.000000 0.769900 0.638200
vn 0.000000 0.769900 0.638200
vn 0.000000 0.769900 0.638200
vn 0.000000 0.769900 0.638200
vn 0.000000 0.769900 0.638200
vn 0.998700 0.051200 0.000000
vn 0.998700 0.051200 0.000000
vn 0.998700 0.051200 0.000000
vn 0.998700 0.051200 0.000000
vn 0.998700 0.051200 0.000000
vn 0.998700 0.051200 0.000000
vn 0.087100 0.054700 -0.994700
vn 0.087100 0.054700 -0.994700
vn 0.087100 0.054700 -0.994700
vn 0.087100 0.054700 -0.994700
vn 0.087100 0.054700 -0.994700
vn 0.087100 0.054700 -0.994700
vn 0.389200 0.921200 0.000000
vn 0.389200 0.921200 0.000000
vn 0.389200 0.921200 0.000000
vn 0.389200 0.921200 0.000000
vn 0.389200 0.921200 0.000000
vn 0.389200 0.921200 0.000000
vn 0.087200 -0.034800 0.995600
vn 0.087200 -0.034800 0.995600
vn 0.087200 -0.034800 0.995600
vn 0.087200 -0.034800 0.995600
vn 0.087200 -0.034800 0.995600
vn 0.087200 -0.034800 0.995600
vn 0.999300 0.036900 0.000000
vn 0.999300 0.036900 0.000000
vn 0.999300 0.036900 0.000000
vn 0.999300 0.036900 0.000000
vn 0.999300 0.036900 0.000000
vn 0.999300 0.036900 0.000000
vn 0.123100 0.027600 -0.992000
vn 0.123100 0.027600 -0.992000
vn 0.123100 0.027600 -0.992000
vn 0.123100 0.027600 -0.992000
vn 0.123100 0.027600 -0.992000
vn 0.123100 0.027600 -0.992000
vn 0.295400 0.955400 0.000000
vn 0.295400 0.955400 0.000000
vn 0.295400 0.955400 0.000000
vn 0.295400 0.955400 0.000000
vn 0.295400 0.955400 0.000000
vn 0.295400 0.955400 0.000000
vn 0.123100 -0.002400 0.992400
vn 0.123100 -0.002400 0.992400
vn 0.123100 -0.002400 0.992400
vn 0.123100 -0.002400 0.992400
vn 0.123100 -0.002400 0.992400
vn 0.123100 -0.002400 0.992400
vn 1.000000 0.005400 0.000700
vn 1.000000 0.005400 0.000700
vn 1.000000 0.005400 0.000700
vn 1.000000 0.005400 0.000700
vn 1.000000 0.005400 0.000700
vn 1.000000 0.005400 0.000700
vn 0.996200 0.086900 0.006600
vn 0.996200 0.086900 0.006600
vn 0.996200 0.086900 0.006600
vn 0.996200 0.086900 0.006600
vn 0.996200 0.086900 0.006600
vn 0.996200 0.086900 0.006600
vn 0.000000 -0.011000 -0.999900
vn 0.000000 -0.011000 -0.999900
vn 0.000000 -0.011000 -0.999900
vn 0.000000 -0.011000 -0.999900
vn 0.000000 -0.011000 -0.999900
vn 0.000000 -0.011000 -0.999900
vn -0.000000 0.052500 0.998600
vn -0.000000 0.052500 0.998600
vn -0.000000 0.052500 0.998600
vn -0.000000 0.052500 0.998600
vn -0.000000 0.052500 0.998600
vn -0.000000 0.052500 0.998600
vn 0.953800 0.093000 0.285800
vn 0.953800 0.093000 0.285800
vn 0.953800 0.093000 0.285800
vn 0.953800 0.093000 0.285800
vn 0.953800 0.093000 0.285800
vn 0.953800 0.093000 0.285800
vn -0.996200 -0.086400 -0.006500
vn -0.996200 -0.086400 -0.006500
vn -0.996200 -0.086400 -0.006500
vn -0.996200 -0.086400 -0.006500
vn -0.996200 -0.086400 -0.006500
vn -0.996200 -0.086400 -0.006500
vn 0.996200 0.086900 0.006600
vn 0.996200 0.086900 0.006600
vn 0.996200 0.086900 0.006600
vn 0.996200 0.086900 0.006600
vn 0.996200 0.086900 0.006600
vn 0.996200 0.086900 0.006600
vn 0.000000 0.997200 0.075300
vn 0.000000 0.997200 0.075300
vn 0.000000 0.997200 0.075300
vn 0.000000 0.997200 0.075300
vn 0.000000 0.997200 0.075300
vn 0.000000 0.997200 0.075300
vn -0.000000 0.017100 0.999900
vn -0.000000 0.017100 0.999900
vn -0.000000 0.017100 0.999900
vn -0.000000 0.017100 0.999900
vn -0.000000 0.017100 0.999900
vn -0.000000 0.017100 0.999900
vn -0.000000 -0.997200 -0.075300
vn -0.000000 -0.997200 -0.075300
vn -0.000000 -0.997200 -0.075300
vn -0.000000 -0.997200 -0.075300
vn -0.000000 -0.997200 -0.075300
vn -0.000000 -0.997200 -0.075300
vn -0.996200 -0.086400 -0.006500
vn -0.996200 -0.086400 -0.006500
vn -0.996200 -0.086400 -0.006500
vn -0.996200 -0.086400 -0.006500
vn -0.996200 -0.086400 -0.006500
vn -0.996200 -0.086400 -0.006500
vn 0.996200 0.086900 0.006600
vn 0.996200 0.086900 0.006600
vn 0.996200 0.086900 0.006600
vn 0.996200 0.086900 0.006600
vn 0.996200 0.086900 0.006600
vn 0.996200 0.086900 0.006600
vn 0.000000 0.997200 0.075300
vn 0.000000 0.997200 0.075300
vn 0.000000 0.997200 0.075300
vn 0.000000 0.997200 0.075300
vn 0.000000 0.997200 0.075300
vn 0.000000 0.997200 0.075300
vn -0.000000 0.052500 0.998600
vn -0.000000 0.052500 0.998600
vn -0.000000 0.052500 0.998600
vn -0.000000 0.052500 0.998600
vn -0.000000 0.052500 0.998600
vn -0.000000 0.052500 0.998600
vn -0.000000 -0.997200 -0.075300
vn -0.000000 -0.997200 -0.075300
vn -0.000000 -0.997200 -0.075300
vn -0.000000 -0.997200 -0.075300
vn -0.000000 -0.997200 -0.075300
vn -0.000000 -0.997200 -0.075300
vn 0.000000 0.997200 0.075300
vn 0.000000 0.997200 0.075300
vn 0.000000 0.997200 0.075300
vn 0.000000 0.997200 0.075300
vn 0.000000 0.997200 0.075300
vn 0.000000 0.997200 0.075300
vn 0.000000 0.847700 0.530500
vn 0.000000 0.847700 0.530500
vn 0.000000 0.847700 0.530500
vn 0.000000 0.847700 0.530500
vn 0.000000 0.847700 0.530500
vn 0.000000 0.847700 0.530500
vn -0.140200 0.025700 0.989800
vn -0.609800 -0.013300 0.792500
vn 0.137700 0.045900 0.989400
vn -0.140200 0.025700 0.989800
vn 0.137700 0.045900 0.989400
vn 0.604800 0.075000 0.792900
vn 0.604800 0.075000 0.792900
vn 0.137700 0.045900 0.989400
vn 0.795400 0.084200 0.600200
vn 0.604800 0.075000 0.792900
vn 0.795400 0.084200 0.600200
vn 0.986500 0.086800 0.139100
vn 0.986500 0.086800 0.139100
vn 0.795400 0.084200 0.600200
vn 0.988400 0.080500 -0.128800
vn 0.986500 0.086800 0.139100
vn 0.988400 0.080500 -0.128800
vn 0.801900 0.055700 -0.594800
vn 0.801900 0.055700 -0.594800
vn 0.988400 0.080500 -0.128800
vn 0.610000 0.037000 -0.791600
vn 0.801900 0.055700 -0.594800
vn 0.610000 0.037000 -0.791600
vn 0.389500 0.017000 -0.920900
vn 0.389500 0.017000 -0.920900
vn 0.610000 0.037000 -0.791600
vn 0.389500 0.017000 -0.920900
vn -0.138800 -0.065600 0.988100
vn -0.602100 -0.108100 0.791100
vn 0.131900 -0.046400 0.990200
vn -0.138800 -0.065600 0.988100
vn 0.131900 -0.046400 0.990200
vn 0.592500 -0.021100 0.805300
vn 0.592500 -0.021100 0.805300
vn 0.131900 -0.046400 0.990200
vn 0.792400 -0.021400 0.609600
vn 0.592500 -0.021100 0.805300
vn 0.792400 -0.021400 0.609600
vn 0.987100 -0.026000 0.157900
vn 0.987100 -0.026000 0.157900
vn 0.792400 -0.021400 0.609600
vn 0.991100 -0.043500 -0.125500
vn 0.987100 -0.026000 0.157900
vn 0.991100 -0.043500 -0.125500
vn 0.806100 -0.072300 -0.587400
vn 0.806100 -0.072300 -0.587400
vn 0.991100 -0.043500 -0.125500
vn 0.606900 -0.095900 -0.789000
vn 0.806100 -0.072300 -0.587400
vn 0.606900 -0.095900 -0.789000
vn 0.388300 -0.105900 -0.915400
vn 0.388300 -0.105900 -0.915400
vn 0.606900 -0.095900 -0.789000
vn 0.388300 -0.105900 -0.915400
vn -0.034800 0.980700 -0.192400
vn -0.725400 0.112700 0.679000
vn -0.002800 0.172800 0.985000
vn -0.034800 0.980700 -0.192400
vn -0.996300 0.070500 -0.049200
vn -0.725400 0.112700 0.679000
vn -0.034800 0.980700 -0.192400
vn -0.679500 0.071000 -0.730200
vn -0.996300 0.070500 -0.049200
vn -0.034800 0.980700 -0.192400
vn -0.000300 0.111400 -0.993800
vn -0.679500 0.071000 -0.730200
vn -0.034800 0.980700 -0.192400
vn 0.673800 0.168900 -0.719400
vn -0.000300 0.111400 -0.993800
vn 0.976600 0.211500 -0.039800
vn 0.673800 0.168900 -0.719400
vn -0.034800 0.980700 -0.192400
vn 0.976600 0.211500 -0.039800
vn -0.034800 0.980700 -0.192400
vn 0.707900 0.213600 0.673200
vn 0.707900 0.213600 0.673200
vn -0.034800 0.980700 -0.192400
vn -0.002800 0.172800 0.985000
vn -0.926700 -0.047500 0.372800
vn -0.609800 -0.013300 0.792500
vn -0.802100 -0.032200 0.596300
vn -0.926700 -0.047500 0.372800
vn -0.802100 -0.032200 0.596300
vn -0.926700 -0.047500 0.372800
vn -0.910900 -0.146800 0.385700
vn -0.602100 -0.108100 0.791100
vn -0.783200 -0.134700 0.607000
vn -0.910900 -0.146800 0.385700
vn -0.783200 -0.134700 0.607000
vn -0.910900 -0.146800 0.385700
vn -0.802100 -0.032200 0.596300
vn -0.609800 -0.013300 0.792500
vn -0.140200 0.025700 0.989800
vn -0.783200 -0.134700 0.607000
vn -0.602100 -0.108100 0.791100
vn -0.138800 -0.065600 0.988100
vn -0.717100 -0.023000 -0.696600
vn -0.717100 -0.023000 -0.696600
vn -0.717100 -0.023000 -0.696600
vn -0.717100 -0.023000 -0.696600
vn -0.717100 -0.023000 -0.696600
vn -0.717100 -0.023000 -0.696600
vn 0.507200 0.847900 0.154100
vn 0.436600 0.865800 0.244300
vn 0.507200 0.847900 0.154100
vn 0.507200 0.847900 0.154100
vn 0.507200 0.847900 0.154100
vn 0.571000 0.818600 0.061800
vn 0.329500 0.921700 0.204600
vn 0.329500 0.921700 0.204600
vn 0.329500 0.921700 0.204600
vn -0.047600 0.937800 0.344000
vn -0.047600 0.937800 0.344000
vn -0.047600 0.937800 0.344000
vn 0.371000 0.003700 -0.928600
vn 0.371000 0.003700 -0.928600
vn 0.371000 0.003700 -0.928600
vn 0.371000 0.003700 -0.928600
vn 0.371000 0.003700 -0.928600
vn 0.371000 0.003700 -0.928600
vn 0.816200 0.028100 -0.577100
vn 0.816200 0.028100 -0.577100
vn 0.816200 0.028100 -0.577100
vn 0.816200 0.028100 -0.577100
vn 0.816200 0.028100 -0.577100
vn 0.816200 0.028100 -0.577100
vn -0.342600 0.005400 0.939500
vn -0.342600 0.005400 0.939500
vn -0.342600 0.005400 0.939500
vn -0.342600 0.005400 0.939500
vn -0.342600 0.005400 0.939500
vn -0.342600 0.005400 0.939500
vn -0.613700 -0.008800 0.789500
vn -0.613700 -0.008800 0.789500
vn -0.613700 -0.008800 0.789500
vn -0.613700 -0.008800 0.789500
vn -0.613700 -0.008800 0.789500
vn -0.613700 -0.008800 0.789500
vn -0.086900 -0.213700 -0.973000
vn 0.086900 -0.213700 -0.973000
vn -0.411400 -0.212500 -0.886300
vn -0.086900 -0.213700 -0.973000
vn -0.411400 -0.212500 -0.886300
vn -0.562100 -0.211300 -0.799600
vn -0.562100 -0.211300 -0.799600
vn -0.411400 -0.212500 -0.886300
vn -0.800300 -0.208100 -0.562400
vn -0.562100 -0.211300 -0.799600
vn -0.800300 -0.208100 -0.562400
vn -0.887700 -0.206000 -0.411800
vn -0.887700 -0.206000 -0.411800
vn -0.800300 -0.208100 -0.562400
vn -0.975600 -0.201600 -0.087000
vn -0.887700 -0.206000 -0.411800
vn -0.975600 -0.201600 -0.087000
vn -0.976100 -0.199200 0.087300
vn -0.976100 -0.199200 0.087300
vn -0.975600 -0.201600 -0.087000
vn -0.889600 -0.194900 0.413000
vn -0.976100 -0.199200 0.087300
vn -0.889600 -0.194900 0.413000
vn -0.802700 -0.192800 0.564400
vn -0.802700 -0.192800 0.564400
vn -0.889600 -0.194900 0.413000
vn -0.564600 -0.189600 0.803300
vn -0.802700 -0.192800 0.564400
vn -0.564600 -0.189600 0.803300
vn -0.413400 -0.188400 0.890900
vn -0.413400 -0.188400 0.890900
vn -0.564600 -0.189600 0.803300
vn -0.087400 -0.187300 0.978400
vn -0.413400 -0.188400 0.890900
vn -0.087400 -0.187300 0.978400
vn 0.087400 -0.187300 0.978400
vn 0.087400 -0.187300 0.978400
vn -0.087400 -0.187300 0.978400
vn 0.413400 -0.188600 0.890800
vn 0.087400 -0.187300 0.978400
vn 0.413400 -0.188600 0.890800
vn 0.564500 -0.189800 0.803300
vn 0.564500 -0.189800 0.803300
vn 0.413400 -0.188600 0.890800
vn 0.802600 -0.193100 0.564400
vn 0.564500 -0.189800 0.803300
vn 0.802600 -0.193100 0.564400
vn 0.889600 -0.195100 0.413000
vn 0.889600 -0.195100 0.413000
vn 0.802600 -0.193100 0.564400
vn 0.976000 -0.199500 0.087300
vn 0.889600 -0.195100 0.413000
vn 0.976000 -0.199500 0.087300
vn 0.975500 -0.201900 -0.087000
vn 0.975500 -0.201900 -0.087000
vn 0.976000 -0.199500 0.087300
vn 0.887600 -0.206300 -0.411800
vn 0.975500 -0.201900 -0.087000
vn 0.887600 -0.206300 -0.411800
vn 0.800200 -0.208300 -0.562300
vn 0.800200 -0.208300 -0.562300
vn 0.887600 -0.206300 -0.411800
vn 0.562100 -0.211500 -0.799600
vn 0.800200 -0.208300 -0.562300
vn 0.562100 -0.211500 -0.799600
vn 0.411400 -0.212600 -0.886300
vn 0.411400 -0.212600 -0.886300
vn 0.562100 -0.211500 -0.799600
vn 0.086900 -0.213700 -0.973000
vn 0.411400 -0.212600 -0.886300
vn 0.086900 -0.213700 -0.973000
vn -0.086900 -0.213700 -0.973000
vn 0.706100 0.054200 0.706100
vn 0.706100 0.054200 0.706100
vn 0.706100 0.054200 0.706100
vn 0.706100 0.054200 0.706100
vn 0.706100 0.054200 0.706100
vn 0.706100 0.054200 0.706100
vn 0.706700 0.034100 -0.706700
vn 0.706700 0.034100 -0.706700
vn 0.706700 0.034100 -0.706700
vn 0.706700 0.034100 -0.706700
vn 0.706700 0.034100 -0.706700
vn 0.706700 0.034100 -0.706700
vn -0.837800 0.497700 0.224500
vn -0.837800 0.497700 0.224500
vn -0.837800 0.497700 0.224500
vn -0.837800 0.497700 0.224500
vn -0.837800 0.497700 0.224500
vn -0.837800 0.497700 0.224500
vn -0.731300 0.003800 -0.682000
vn -0.731300 0.003800 -0.682000
vn -0.731300 0.003800 -0.682000
vn -0.731300 0.003800 -0.682000
vn -0.731300 0.003800 -0.682000
vn -0.731300 0.003800 -0.682000
vn -0.223500 0.504200 0.834200
vn -0.223500 0.504200 0.834200
vn -0.223500 0.504200 0.834200
vn -0.223500 0.504200 0.834200
vn -0.223500 0.504200 0.834200
vn -0.223500 0.504200 0.834200
vn 0.223500 0.504100 0.834200
vn 0.223500 0.504100 0.834200
vn 0.223500 0.504100 0.834200
vn 0.223500 0.504100 0.834200
vn 0.223500 0.504100 0.834200
vn 0.223500 0.504100 0.834200
vn -0.681800 0.023900 0.731100
vn -0.681800 0.023900 0.731100
vn -0.681800 0.023900 0.731100
vn -0.681800 0.023900 0.731100
vn -0.681800 0.023900 0.731100
vn -0.681800 0.023900 0.731100
vn 0.731300 0.003600 -0.682000
vn 0.731300 0.003600 -0.682000
vn 0.731300 0.003600 -0.682000
vn 0.731300 0.003600 -0.682000
vn 0.731300 0.003600 -0.682000
vn 0.731300 0.003600 -0.682000
vn 0.837900 0.497600 0.224500
vn 0.837900 0.497600 0.224500
vn 0.837900 0.497600 0.224500
vn 0.837900 0.497600 0.224500
vn 0.837900 0.497600 0.224500
vn 0.837900 0.497600 0.224500
vn 0.840500 0.492700 -0.225200
vn 0.840500 0.492700 -0.225200
vn 0.840500 0.492700 -0.225200
vn 0.840500 0.492700 -0.225200
vn 0.840500 0.492700 -0.225200
vn 0.840500 0.492700 -0.225200
vn 0.731100 0.023000 0.681900
vn 0.731100 0.023000 0.681900
vn 0.731100 0.023000 0.681900
vn 0.731100 0.023000 0.681900
vn 0.731100 0.023000 0.681900
vn 0.731100 0.023000 0.681900
vn 0.226200 0.486100 -0.844100
vn 0.226200 0.486100 -0.844100
vn 0.226200 0.486100 -0.844100
vn 0.226200 0.486100 -0.844100
vn 0.226200 0.486100 -0.844100
vn 0.226200 0.486100 -0.844100
vn -0.226200 0.486200 -0.844100
vn -0.226200 0.486200 -0.844100
vn -0.226200 0.486200 -0.844100
vn -0.226200 0.486200 -0.844100
vn -0.226200 0.486200 -0.844100
vn -0.226200 0.486200 -0.844100
vn 0.682000 0.002900 -0.731300
vn 0.682000 0.002900 -0.731300
vn 0.682000 0.002900 -0.731300
vn 0.682000 0.002900 -0.731300
vn 0.682000 0.002900 -0.731300
vn 0.682000 0.002900 -0.731300
vn -0.731100 0.023200 0.681900
vn -0.731100 0.023200 0.681900
vn -0.731100 0.023200 0.681900
vn -0.731100 0.023200 0.681900
vn -0.731100 0.023200 0.681900
vn -0.731100 0.023200 0.681900
vn -0.840500 0.492900 -0.225200
vn -0.840500 0.492900 -0.225200
vn -0.840500 0.492900 -0.225200
vn -0.840500 0.492900 -0.225200
vn -0.840500 0.492900 -0.225200
vn -0.840500 0.492900 -0.225200
vn 0.706800 -0.027800 0.706800
vn 0.706800 -0.027800 0.706800
vn 0.706800 -0.027800 0.706800
vn 0.706800 -0.027800 0.706800
vn 0.706800 -0.027800 0.706800
vn 0.706800 -0.027800 0.706800
vn -0.706800 -0.027700 0.706800
vn -0.706800 -0.027700 0.706800
vn -0.706800 -0.027700 0.706800
vn -0.706800 -0.027700 0.706800
vn -0.706800 -0.027700 0.706800
vn -0.706800 -0.027700 0.706800
vn 0.706300 -0.047900 -0.706300
vn 0.706300 -0.047900 -0.706300
vn 0.706300 -0.047900 -0.706300
vn 0.706300 -0.047900 -0.706300
vn 0.706300 -0.047900 -0.706300
vn 0.706300 -0.047900 -0.706300
vn 0.681800 0.023700 0.731100
vn 0.681800 0.023700 0.731100
vn 0.681800 0.023700 0.731100
vn 0.681800 0.023700 0.731100
vn 0.681800 0.023700 0.731100
vn 0.681800 0.023700 0.731100
vn -0.841200 0.514300 0.166800
vn -0.947400 0.304300 -0.099300
vn -0.863000 0.319500 0.391400
vn -0.841200 0.514300 0.166800
vn -0.863000 0.319500 0.391400
vn -0.477500 0.517300 0.710200
vn -0.477500 0.517300 0.710200
vn -0.863000 0.319500 0.391400
vn -0.333400 0.332300 0.882300
vn -0.477500 0.517300 0.710200
vn -0.333400 0.332300 0.882300
vn 0.160900 0.537300 0.827900
vn 0.160900 0.537300 0.827900
vn -0.333400 0.332300 0.882300
vn 0.382200 0.364600 0.849100
vn 0.160900 0.537300 0.827900
vn 0.382200 0.364600 0.849100
vn 0.686000 0.561600 0.462600
vn 0.686000 0.561600 0.462600
vn 0.382200 0.364600 0.849100
vn 0.858500 0.396500 0.325200
vn 0.686000 0.561600 0.462600
vn 0.858500 0.396500 0.325200
vn 0.802000 0.576200 -0.157700
vn 0.802000 0.576200 -0.157700
vn 0.858500 0.396500 0.325200
vn 0.830900 0.410200 -0.376000
vn 0.802000 0.576200 -0.157700
vn 0.830900 0.410200 -0.376000
vn 0.532500 0.606000 -0.591000
vn 0.532500 0.606000 -0.591000
vn 0.830900 0.410200 -0.376000
vn 0.715900 0.388700 -0.580000
vn -0.011400 0.999900 0.005600
vn 0.160900 0.537300 0.827900
vn 0.686000 0.561600 0.462600
vn -0.011400 0.999900 0.005600
vn -0.477500 0.517300 0.710200
vn 0.160900 0.537300 0.827900
vn -0.011400 0.999900 0.005600
vn -0.841200 0.514300 0.166800
vn -0.477500 0.517300 0.710200
vn -0.011400 0.999900 0.005600
vn -0.734300 0.631700 -0.248400
vn -0.841200 0.514300 0.166800
vn -0.011400 0.999900 0.005600
vn -0.184200 0.769700 -0.611300
vn -0.734300 0.631700 -0.248400
vn -0.011400 0.999900 0.005600
vn 0.532500 0.606000 -0.591000
vn -0.184200 0.769700 -0.611300
vn -0.011400 0.999900 0.005600
vn 0.802000 0.576200 -0.157700
vn 0.532500 0.606000 -0.591000
vn -0.011400 0.999900 0.005600
vn 0.686000 0.561600 0.462600
vn 0.802000 0.576200 -0.157700
vn 0.150500 -0.007700 0.988600
vn -0.104300 -0.021300 0.994300
vn 0.412700 0.007500 0.910800
vn 0.150500 -0.007700 0.988600
vn 0.412700 0.007500 0.910800
vn 0.804800 0.035200 0.592500
vn 0.804800 0.035200 0.592500
vn 0.412700 0.007500 0.910800
vn 0.934800 0.047700 0.352100
vn 0.804800 0.035200 0.592500
vn 0.934800 0.047700 0.352100
vn 0.986700 0.062900 -0.150100
vn 0.986700 0.062900 -0.150100
vn 0.934800 0.047700 0.352100
vn 0.908900 0.065500 -0.411800
vn 0.986700 0.062900 -0.150100
vn 0.908900 0.065500 -0.411800
vn 0.775400 0.063500 -0.628200
vn 0.775400 0.063500 -0.628200
vn 0.908900 0.065500 -0.411800
vn 0.775400 0.063500 -0.628200
vn -0.993800 -0.038800 -0.104200
vn -0.993800 -0.038800 -0.104200
vn -0.993800 -0.038800 -0.104200
vn -0.993800 -0.038800 -0.104200
vn -0.993800 -0.038800 -0.104200
vn -0.993800 -0.038800 -0.104200
vn -0.011400 0.999900 0.005600
vn -0.011400 0.999900 0.005600
vn -0.011400 0.999900 0.005600
vn -0.011400 0.999900 0.005600
vn -0.011400 0.999900 0.005600
vn -0.011400 0.999900 0.005600
vn 0.629400 0.016000 0.776900
vn 0.629400 0.016000 0.776900
vn 0.629400 0.016000 0.776900
vn 0.629400 0.016000 0.776900
vn 0.629400 0.016000 0.776900
vn 0.629400 0.016000 0.776900
vn -0.629500 -0.008800 -0.777000
vn -0.629500 -0.008800 -0.777000
vn -0.629500 -0.008800 -0.777000
vn -0.629500 -0.008800 -0.777000
vn -0.629500 -0.008800 -0.777000
vn -0.629500 -0.008800 -0.777000
vn -0.734300 0.631700 -0.248400
vn -0.947400 0.304300 -0.099300
vn -0.841200 0.514300 0.166800
vn -0.104300 -0.021300 0.994300
vn -0.104300 -0.021300 0.994300
vn 0.150500 -0.007700 0.988600
vn -0.502000 0.039200 0.864000
vn -0.707900 0.036500 0.705300
vn -0.502000 0.039200 0.864000
vn -0.502000 0.039200 0.864000
vn -0.502000 0.039200 0.864000
vn -0.090200 0.040400 0.995100
vn -0.090200 0.040400 0.995100
vn -0.502000 0.039200 0.864000
vn -0.000000 0.040600 0.999200
vn -0.090200 0.040400 0.995100
vn -0.000000 0.040600 0.999200
vn 0.423400 0.039500 0.905100
vn 0.423400 0.039500 0.905100
vn -0.000000 0.040600 0.999200
vn 0.502000 0.039200 0.864000
vn 0.423400 0.039500 0.905100
vn 0.502000 0.039200 0.864000
vn 0.818000 0.036100 0.574100
vn 0.818000 0.036100 0.574100
vn 0.502000 0.039200 0.864000
vn 0.865500 0.035400 0.499600
vn 0.818000 0.036100 0.574100
vn 0.865500 0.035400 0.499600
vn 0.995500 0.031100 0.089500
vn 0.995500 0.031100 0.089500
vn 0.865500 0.035400 0.499600
vn 0.999500 0.030300 0.000000
vn 0.995500 0.031100 0.089500
vn 0.999500 0.030300 0.000000
vn 0.906500 0.025900 -0.421400
vn 0.906500 0.025900 -0.421400
vn 0.999500 0.030300 0.000000
vn 0.865800 0.025200 -0.499800
vn 0.906500 0.025900 -0.421400
vn 0.865800 0.025200 -0.499800
vn 0.708200 0.022100 -0.705600
vn 0.708200 0.022100 -0.705600
vn 0.865800 0.025200 -0.499800
vn 0.708200 0.022100 -0.705600
vn -0.502000 0.039200 0.864000
vn -0.707900 0.036500 0.705300
vn -0.502000 0.039200 0.864000
vn -0.502000 0.039200 0.864000
vn -0.502000 0.039200 0.864000
vn -0.000000 0.040600 0.999200
vn -0.000000 0.040600 0.999200
vn -0.502000 0.039200 0.864000
vn -0.000000 0.040600 0.999200
vn -0.000000 0.040600 0.999200
vn -0.000000 0.040600 0.999200
vn 0.502000 0.039200 0.864000
vn 0.502000 0.039200 0.864000
vn -0.000000 0.040600 0.999200
vn 0.502000 0.039200 0.864000
vn 0.502000 0.039200 0.864000
vn 0.502000 0.039200 0.864000
vn 0.865500 0.035400 0.499600
vn 0.865500 0.035400 0.499600
vn 0.502000 0.039200 0.864000
vn 0.865500 0.035400 0.499600
vn 0.865500 0.035400 0.499600
vn 0.865500 0.035400 0.499600
vn 0.999500 0.030300 0.000000
vn 0.999500 0.030300 0.000000
vn 0.865500 0.035400 0.499600
vn 0.999500 0.030300 0.000000
vn 0.999500 0.030300 0.000000
vn 0.999500 0.030300 0.000000
vn 0.865800 0.025200 -0.499800
vn 0.865800 0.025200 -0.499800
vn 0.999500 0.030300 0.000000
vn 0.865800 0.025200 -0.499800
vn 0.865800 0.025200 -0.499800
vn 0.865800 0.025200 -0.499800
vn 0.708200 0.022100 -0.705600
vn 0.708200 0.022100 -0.705600
vn 0.865800 0.025200 -0.499800
vn 0.708200 0.022100 -0.705600
vn -0.502000 0.039200 0.864000
vn -0.707900 0.036500 0.705300
vn -0.502000 0.039200 0.864000
vn -0.502000 0.039200 0.864000
vn -0.502000 0.039200 0.864000
vn -0.000000 0.040600 0.999200
vn -0.000000 0.040600 0.999200
vn -0.502000 0.039200 0.864000
vn -0.000000 0.040600 0.999200
vn -0.000000 0.040600 0.999200
vn -0.000000 0.040600 0.999200
vn 0.502000 0.039200 0.864000
vn 0.502000 0.039200 0.864000
vn -0.000000 0.040600 0.999200
vn 0.632400 0.037900 0.773700
vn 0.502000 0.039200 0.864000
vn 0.632400 0.037900 0.773700
vn 0.865500 0.035400 0.499600
vn 0.865500 0.035400 0.499600
vn 0.632400 0.037900 0.773700
vn 0.906300 0.034500 0.421300
vn 0.865500 0.035400 0.499600
vn 0.906300 0.034500 0.421300
vn 0.999500 0.030300 0.000000
vn 0.999500 0.030300 0.000000
vn 0.906300 0.034500 0.421300
vn 0.998100 0.029700 -0.053900
vn 0.999500 0.030300 0.000000
vn 0.998100 0.029700 -0.053900
vn 0.865800 0.025200 -0.499800
vn 0.865800 0.025200 -0.499800
vn 0.998100 0.029700 -0.053900
vn 0.846200 0.024900 -0.532300
vn 0.865800 0.025200 -0.499800
vn 0.846200 0.024900 -0.532300
vn 0.708200 0.022100 -0.705600
vn 0.708200 0.022100 -0.705600
vn 0.846200 0.024900 -0.532300
vn 0.708200 0.022100 -0.705600
vn -0.000000 0.040600 0.999200
vn -0.423400 0.039500 0.905100
vn 0.090200 0.040400 0.995100
vn -0.000000 0.040600 0.999200
vn 0.090200 0.040400 0.995100
vn 0.502000 0.039200 0.864000
vn 0.502000 0.039200 0.864000
vn 0.090200 0.040400 0.995100
vn 0.576600 0.038600 0.816100
vn 0.502000 0.039200 0.864000
vn 0.576600 0.038600 0.816100
vn 0.818000 0.036100 0.574100
vn 0.818000 0.036100 0.574100
vn 0.576600 0.038600 0.816100
vn 0.906300 0.034500 0.421300
vn 0.818000 0.036100 0.574100
vn 0.906300 0.034500 0.421300
vn 0.998800 0.030600 0.038500
vn 0.998800 0.030600 0.038500
vn 0.906300 0.034500 0.421300
vn 0.999500 0.030300 0.000000
vn 0.998800 0.030600 0.038500
vn 0.999500 0.030300 0.000000
vn 0.906500 0.025900 -0.421400
vn 0.632400 0.037900 0.773700
vn 0.502000 0.039200 0.864000
vn 0.818000 0.036100 0.574100
vn 0.632400 0.037900 0.773700
vn 0.818000 0.036100 0.574100
vn 0.906300 0.034500 0.421300
vn 0.906300 0.034500 0.421300
vn 0.818000 0.036100 0.574100
vn 0.998800 0.030600 0.038500
vn 0.906300 0.034500 0.421300
vn 0.998800 0.030600 0.038500
vn 0.998100 0.029700 -0.053900
vn 0.998100 0.029700 -0.053900
vn 0.998800 0.030600 0.038500
vn 0.846200 0.024900 -0.532300
vn -0.423400 0.039500 0.905100
vn -0.000000 0.040600 0.999200
vn -0.502000 0.039200 0.864000
vn -0.423400 0.039500 0.905100
vn -0.502000 0.039200 0.864000
vn -0.707900 0.036500 0.705300
vn -0.707900 0.036500 0.705300
vn -0.502000 0.039200 0.864000
vn -0.707900 0.036500 0.705300
vn 0.708200 0.022100 -0.705600
vn 0.708200 0.022100 -0.705600
vn 0.846200 0.024900 -0.532300
vn 0.708200 0.022100 -0.705600
vn 0.846200 0.024900 -0.532300
vn 0.906500 0.025900 -0.421400
vn 0.906500 0.025900 -0.421400
vn 0.846200 0.024900 -0.532300
vn 0.998800 0.030600 0.038500
vn 0.262100 0.039200 0.964200
vn 0.262100 0.039200 0.964200
vn 0.262100 0.039200 0.964200
vn 0.262100 0.039200 0.964200
vn 0.262100 0.039200 0.964200
vn 0.262100 0.039200 0.964200
vn -0.707900 0.036500 0.705300
vn -0.707900 0.036500 0.705300
vn -0.502000 0.039200 0.864000
vn -0.707900 0.036500 0.705300
vn -0.707900 0.036500 0.705300
vn -0.502000 0.039200 0.864000
vn -0.262100 0.039200 0.964200
vn -0.262100 0.039200 0.964200
vn -0.262100 0.039200 0.964200
usemtl join.bmp
f 1/1/1 2/2/2 3/3/3
f 4/4/4 5/5/5 6/6/6
f 7/7/7 8/8/8 9/9/9
f 10/10/10 11/11/11 12/12/12
f 13/13/13 14/14/14 15/15/15
f 16/16/16 17/17/17 18/18/18
f 19/19/19 20/20/20 21/21/21
f 22/22/22 23/23/23 24/24/24
f 25/25/25 26/26/26 27/27/27
f 28/28/28 29/29/29 30/30/30
f 31/31/31 32/32/32 33/33/33
f 34/34/34 35/35/35 36/36/36
f 37/37/37 38/38/38 39/39/39
f 40/40/40 41/41/41 42/42/42
f 43/43/43 44/44/44 45/45/45
f 46/46/46 47/47/47 48/48/48
f 49/49/49 50/50/50 51/51/51
f 52/52/52 53/53/53 54/54/54
f 55/55/55 56/56/56 57/57/57
usemtl m5cl.bmp
f 58/58/58 59/59/59 60/60/60
f 61/61/61 62/62/62 63/63/63
f 64/64/64 65/65/65 66/66/66
f 67/67/67 68/68/68 69/69/69
f 70/70/70 71/71/71 72/72/72
f 73/73/73 74/74/74 75/75/75
f 76/76/76 77/77/77 78/78/78
f 79/79/79 80/80/80 81/81/81
usemtl m6cl.bmp
f 82/82/82 83/83/83 84/84/84
f 85/85/85 86/86/86 87/87/87
f 88/88/88 89/89/89 90/90/90
f 91/91/91 92/92/92 93/93/93
f 94/94/94 95/95/95 96/96/96
f 97/97/97 98/98/98 99/99/99
f 100/100/100 101/101/101 102/102/102
f 103/103/103 104/104/104 105/105/105
usemtl m10cl.bmp
f 106/106/106 107/107/107 108/108/108
f 109/109/109 110/110/110 111/111/111
f 112/112/112 113/113/113 114/114/114
f 115/115/115 116/116/116 117/117/117
usemtl m11cl.bmp
f 118/118/118 119/119/119 120/120/120
f 121/121/121 122/122/122 123/123/123
f 124/124/124 125/125/125 126/126/126
f 127/127/127 128/128/128 129/129/129
f 130/130/130 131/131/131 132/132/132
f 133/133/133 134/134/134 135/135/135
f 136/136/136 137/137/137 138/138/138
f 139/139/139 140/140/140 141/141/141
f 142/142/142 143/143/143 144/144/144
f 145/145/145 146/146/146 147/147/147
usemtl m9cl.bmp
f 148/148/148 149/149/149 150/150/150
f 151/151/151 152/152/152 153/153/153
f 154/154/154 155/155/155 156/156/156
f 157/157/157 158/158/158 159/159/159
f 160/160/160 161/161/161 162/162/162
f 163/163/163 164/164/164 165/165/165
f 166/166/166 167/167/167 168/168/168
f 169/169/169 170/170/170 171/171/171
usemtl m8cl.bmp
f 172/172/172 173/173/173 174/174/174
f 175/175/175 176/176/176 177/177/177
usemtl m7cl.bmp
f 178/178/178 179/179/179 180/180/180
f 181/181/181 182/182/182 183/183/183
f 184/184/184 185/185/185 186/186/186
f 187/187/187 188/188/188 189/189/189
f 190/190/190 191/191/191 192/192/192
f 193/193/193 194/194/194 195/195/195
usemtl m4cl.bmp
f 196/196/196 197/197/197 198/198/198
f 199/199/199 200/200/200 201/201/201
usemtl m12cl.bmp
f 202/202/202 203/203/203 204/204/204
f 205/205/205 206/206/206 207/207/207
f 208/208/208 209/209/209 210/210/210
f 211/211/211 212/212/212 213/213/213
f 214/214/214 215/215/215 216/216/216
f 217/217/217 218/218/218 219/219/219
f 220/220/220 221/221/221 222/222/222
f 223/223/223 224/224/224 225/225/225
f 226/226/226 227/227/227 228/228/228
f 229/229/229 230/230/230 231/231/231
f 232/232/232 233/233/233 234/234/234
f 235/235/235 236/236/236 237/237/237
f 238/238/238 239/239/239 240/240/240
f 241/241/241 242/242/242 243/243/243
f 244/244/244 245/245/245 246/246/246
f 247/247/247 248/248/248 249/249/249
f 250/250/250 251/251/251 252/252/252
f 253/253/253 254/254/254 255/255/255
f 256/256/256 257/257/257 258/258/258
f 259/259/259 260/260/260 261/261/261
f 262/262/262 263/263/263 264/264/264
f 265/265/265 266/266/266 267/267/267
f 268/268/268 269/269/269 270/270/270
f 271/271/271 272/272/272 273/273/273
f 274/274/274 275/275/275 276/276/276
f 277/277/277 278/278/278 279/279/279
f 280/280/280 281/281/281 282/282/282
f 283/283/283 284/284/284 285/285/285
usemtl sboxback.bmp
f 286/286/286 287/287/287 288/288/288
f 289/289/289 290/290/290 291/291/291
f 292/292/292 293/293/293 294/294/294
f 295/295/295 296/296/296 297/297/297
usemtl m13cl.bmp
f 298/298/298 299/299/299 300/300/300
f 301/301/301 302/302/302 303/303/303
f 304/304/304 305/305/305 306/306/306
f 307/307/307 308/308/308 309/309/309
f 310/310/310 311/311/311 312/312/312
f 313/313/313 314/314/314 315/315/315
f 316/316/316 317/317/317 318/318/318
f 319/319/319 320/320/320 321/321/321
f 322/322/322 323/323/323 324/324/324
f 325/325/325 326/326/326 327/327/327
f 328/328/328 329/329/329 330/330/330
f 331/331/331 332/332/332 333/333/333
f 334/334/334 335/335/335 336/336/336
f 337/337/337 338/338/338 339/339/339
f 340/340/340 341/341/341 342/342/342
f 343/343/343 344/344/344 345/345/345
f 346/346/346 347/347/347 348/348/348
f 349/349/349 350/350/350 351/351/351
f 352/352/352 353/353/353 354/354/354
f 355/355/355 356/356/356 357/357/357
f 358/358/358 359/359/359 360/360/360
f 361/361/361 362/362/362 363/363/363
f 364/364/364 365/365/365 366/366/366
f 367/367/367 368/368/368 369/369/369
f 370/370/370 371/371/371 372/372/372
f 373/373/373 374/374/374 375/375/375
f 376/376/376 377/377/377 378/378/378
f 379/379/379 380/380/380 381/381/381
f 382/382/382 383/383/383 384/384/384
f 385/385/385 386/386/386 387/387/387
f 388/388/388 389/389/389 390/390/390
f 391/391/391 392/392/392 393/393/393
usemtl m16cl.bmp
f 394/394/394 395/395/395 396/396/396
f 397/397/397 398/398/398 399/399/399
f 400/400/400 401/401/401 402/402/402
f 403/403/403 404/404/404 405/405/405
f 406/406/406 407/407/407 408/408/408
f 409/409/409 410/410/410 411/411/411
usemtl m18cl.bmp
f 412/412/412 413/413/413 414/414/414
f 415/415/415 416/416/416 417/417/417
f 418/418/418 419/419/419 420/420/420
f 421/421/421 422/422/422 423/423/423
usemtl m17cl.bmp
f 424/424/424 425/425/425 426/426/426
f 427/427/427 428/428/428 429/429/429
f 430/430/430 431/431/431 432/432/432
f 433/433/433 434/434/434 435/435/435
usemtl m2cl.bmp
f 436/436/436 437/437/437 438/438/438
f 439/439/439 440/440/440 441/441/441
f 442/442/442 443/443/443 444/444/444
f 445/445/445 446/446/446 447/447/447
f 448/448/448 449/449/449 450/450/450
f 451/451/451 452/452/452 453/453/453
f 454/454/454 455/455/455 456/456/456
f 457/457/457 458/458/458 459/459/459
f 460/460/460 461/461/461 462/462/462
f 463/463/463 464/464/464 465/465/465
f 466/466/466 467/467/467 468/468/468
f 469/469/469 470/470/470 471/471/471
f 472/472/472 473/473/473 474/474/474
f 475/475/475 476/476/476 477/477/477
f 478/478/478 479/479/479 480/480/480
f 481/481/481 482/482/482 483/483/483
f 484/484/484 485/485/485 486/486/486
f 487/487/487 488/488/488 489/489/489
f 490/490/490 491/491/491 492/492/492
f 493/493/493 494/494/494 495/495/495
f 496/496/496 497/497/497 498/498/498
f 499/499/499 500/500/500 501/501/501
f 502/502/502 503/503/503 504/504/504
f 505/505/505 506/506/506 507/507/507
f 508/508/508 509/509/509 510/510/510
f 511/511/511 512/512/512 513/513/513
f 514/514/514 515/515/515 516/516/516
f 517/517/517 518/518/518 519/519/519
f 520/520/520 521/521/521 522/522/522
f 523/523/523 524/524/524 525/525/525
f 526/526/526 527/527/527 528/528/528
f 529/529/529 530/530/530 531/531/531
f 532/532/532 533/533/533 534/534/534
f 535/535/535 536/536/536 537/537/537
f 538/538/538 539/539/539 540/540/540
f 541/541/541 542/542/542 543/543/543
f 544/544/544 545/545/545 546/546/546
f 547/547/547 548/548/548 549/549/549
f 550/550/550 551/551/551 552/552/552
f 553/553/553 554/554/554 555/555/555
f 556/556/556 557/557/557 558/558/558
f 559/559/559 560/560/560 561/561/561
f 562/562/562 563/563/563 564/564/564
f 565/565/565 566/566/566 567/567/567
f 568/568/568 569/569/569 570/570/570
f 571/571/571 572/572/572 573/573/573
f 574/574/574 575/575/575 576/576/576
f 577/577/577 578/578/578 579/579/579
f 580/580/580 581/581/581 582/582/582
f 583/583/583 584/584/584 585/585/585
f 586/586/586 587/587/587 588/588/588
f 589/589/589 590/590/590 591/591/591
f 592/592/592 593/593/593 594/594/594
f 595/595/595 596/596/596 597/597/597
f 598/598/598 599/599/599 600/600/600
f 601/601/601 602/602/602 603/603/603
f 604/604/604 605/605/605 606/606/606
f 607/607/607 608/608/608 609/609/609
f 610/610/610 611/611/611 612/612/612
f 613/613/613 614/614/614 615/615/615
f 616/616/616 617/617/617 618/618/618
f 619/619/619 620/620/620 621/621/621
f 622/622/622 623/623/623 624/624/624
f 625/625/625 626/626/626 627/627/627
usemtl m3cl.bmp
f 628/628/628 629/629/629 630/630/630
f 631/631/631 632/632/632 633/633/633
f 634/634/634 635/635/635 636/636/636
f 637/637/637 638/638/638 639/639/639
f 640/640/640 641/641/641 642/642/642
f 643/643/643 644/644/644 645/645/645
f 646/646/646 647/647/647 648/648/648
f 649/649/649 650/650/650 651/651/651
f 652/652/652 653/653/653 654/654/654
f 655/655/655 656/656/656 657/657/657
f 658/658/658 659/659/659 660/660/660
f 661/661/661 662/662/662 663/663/663
f 664/664/664 665/665/665 666/666/666
f 667/667/667 668/668/668 669/669/669
f 670/670/670 671/671/671 672/672/672
f 673/673/673 674/674/674 675/675/675
f 676/676/676 677/677/677 678/678/678
f 679/679/679 680/680/680 681/681/681
f 682/682/682 683/683/683 684/684/684
f 685/685/685 686/686/686 687/687/687
f 688/688/688 689/689/689 690/690/690
f 691/691/691 692/692/692 693/693/693
f 694/694/694 695/695/695 696/696/696
f 697/697/697 698/698/698 699/699/699
f 700/700/700 701/701/701 702/702/702
f 703/703/703 704/704/704 705/705/705
f 706/706/706 707/707/707 708/708/708
f 709/709/709 710/710/710 711/711/711
f 712/712/712 713/713/713 714/714/714
f 715/715/715 716/716/716 717/717/717
f 718/718/718 719/719/719 720/720/720
f 721/721/721 722/722/722 723/723/723
f 724/724/724 725/725/725 726/726/726
f 727/727/727 728/728/728 729/729/729
f 730/730/730 731/731/731 732/732/732
f 733/733/733 734/734/734 735/735/735
usemtl m1cl.bmp
f 736/736/736 737/737/737 738/738/738
f 739/739/739 740/740/740 741/741/741
f 742/742/742 743/743/743 744/744/744
f 745/745/745 746/746/746 747/747/747
f 748/748/748 749/749/749 750/750/750
f 751/751/751 752/752/752 753/753/753
f 754/754/754 755/755/755 756/756/756
f 757/757/757 758/758/758 759/759/759
f 760/760/760 761/761/761 762/762/762
f 763/763/763 764/764/764 765/765/765
f 766/766/766 767/767/767 768/768/768
f 769/769/769 770/770/770 771/771/771
f 772/772/772 773/773/773 774/774/774
f 775/775/775 776/776/776 777/777/777
f 778/778/778 779/779/779 780/780/780
f 781/781/781 782/782/782 783/783/783
f 784/784/784 785/785/785 786/786/786
f 787/787/787 788/788/788 789/789/789
f 790/790/790 791/791/791 792/792/792
f 793/793/793 794/794/794 795/795/795
f 796/796/796 797/797/797 798/798/798
f 799/799/799 800/800/800 801/801/801
f 802/802/802 803/803/803 804/804/804
f 805/805/805 806/806/806 807/807/807
f 808/808/808 809/809/809 810/810/810
f 811/811/811 812/812/812 813/813/813
f 814/814/814 815/815/815 816/816/816
f 817/817/817 818/818/818 819/819/819
f 820/820/820 821/821/821 822/822/822
f 823/823/823 824/824/824 825/825/825
f 826/826/826 827/827/827 828/828/828
f 829/829/829 830/830/830 831/831/831
f 832/832/832 833/833/833 834/834/834
f 835/835/835 836/836/836 837/837/837
f 838/838/838 839/839/839 840/840/840
f 841/841/841 842/842/842 843/843/843
f 844/844/844 845/845/845 846/846/846
f 847/847/847 848/848/848 849/849/849
f 850/850/850 851/851/851 852/852/852
f 853/853/853 854/854/854 855/855/855
f 856/856/856 857/857/857 858/858/858
f 859/859/859 860/860/860 861/861/861
f 862/862/862 863/863/863 864/864/864
f 865/865/865 866/866/866 867/867/867
f 868/868/868 869/869/869 870/870/870
f 871/871/871 872/872/872 873/873/873
f 874/874/874 875/875/875 876/876/876
f 877/877/877 878/878/878 879/879/879
f 880/880/880 881/881/881 882/882/882
f 883/883/883 884/884/884 885/885/885
f 886/886/886 887/887/887 888/888/888
f 889/889/889 890/890/890 891/891/891
f 892/892/892 893/893/893 894/894/894
f 895/895/895 896/896/896 897/897/897
f 898/898/898 899/899/899 900/900/900
f 901/901/901 902/902/902 903/903/903
f 904/904/904 905/905/905 906/906/906
f 907/907/907 908/908/908 909/909/909
f 910/910/910 911/911/911 912/912/912
f 913/913/913 914/914/914 915/915/915
f 916/916/916 917/917/917 918/918/918
f 919/919/919 920/920/920 921/921/921
f 922/922/922 923/923/923 924/924/924
